<?xml version="1.0" encoding="UTF-8" standalone="no"?>
<svg
   xmlns:dc="http://purl.org/dc/elements/1.1/"
   xmlns:cc="http://creativecommons.org/ns#"
   xmlns:rdf="http://www.w3.org/1999/02/22-rdf-syntax-ns#"
   xmlns:svg="http://www.w3.org/2000/svg"
   xmlns="http://www.w3.org/2000/svg"
   xmlns:sodipodi="http://sodipodi.sourceforge.net/DTD/sodipodi-0.dtd"
   xmlns:inkscape="http://www.inkscape.org/namespaces/inkscape"
   width="272.7688mm"
   height="270.83884mm"
   viewBox="0 0 272.76881 270.83884"
   version="1.1"
   id="svg109"
   inkscape:version="1.0.1 (3bc2e813f5, 2020-09-07)"
   sodipodi:docname="favicon.svg">
  <defs
     id="defs103" />
  <sodipodi:namedview
     id="base"
     pagecolor="#ffffff"
     bordercolor="#666666"
     borderopacity="1.0"
     inkscape:pageopacity="0.0"
     inkscape:pageshadow="2"
     inkscape:zoom="0.35"
     inkscape:cx="325.07163"
     inkscape:cy="317.41022"
     inkscape:document-units="mm"
     inkscape:current-layer="layer1"
     inkscape:document-rotation="0"
     showgrid="false"
     fit-margin-top="0"
     fit-margin-left="0"
     fit-margin-right="0"
     fit-margin-bottom="0" />
  <metadata
     id="metadata106">
    <rdf:RDF>
      <cc:Work
         rdf:about="">
        <dc:format>image/svg+xml</dc:format>
        <dc:type
           rdf:resource="http://purl.org/dc/dcmitype/StillImage" />
        <dc:title></dc:title>
      </cc:Work>
    </rdf:RDF>
  </metadata>
  <g
     inkscape:label="Capa 1"
     inkscape:groupmode="layer"
     id="layer1"
     transform="translate(-19.824799,-67.291718)">
    <path
       sodipodi:nodetypes="cccccccccccccscccsccccc"
       inkscape:connector-curvature="0"
       id="path2061"
       d="m 85.867423,176.83718 c 0.144298,-3.46188 1.678483,-12.44565 0.610074,-18.15001 0,0 -1.677724,-22.26806 6.558415,-29.28403 15.282398,-12.80378 31.974528,-13.87943 50.942038,-13.87943 9.1576,1.03029 8.30985,8.56172 14.03193,6.17711 0,0 13.26932,-8.76997 21.81053,-6.32963 8.54115,2.44033 24.55589,8.23612 24.55589,8.23612 16.19201,10.52037 14.78161,25.61571 15.40462,38.58788 0.32128,7.72379 0.10896,12.69265 -1.05364,18.99428 l 0.59607,15.17042 1.83026,9.3038 6.77596,-6.53597 -0.79961,11.87498 c -0.0527,3.88368 2.45108,11.05427 1.00676,18.17253 -3.43633,16.93597 -4.07795,31.12605 -7.78723,35.50513 0.93072,12.3587 -3.81999,25.32703 -13.99042,31.27579 -8.92655,15.2974 -19.24387,19.43815 -34.92732,23.48825 -12.81176,2.74538 -29.89415,2.44034 -43.92607,-8.6937 -14.03195,-11.13404 -25.47102,-32.487 -25.47102,-32.487 l -4.590966,-18.30252 c 0,0 -2.119967,-14.4895 -3.035086,-15.86219 -0.915136,-1.37269 -6.959143,-15.63117 -6.806629,-19.90176 1.66089,-28.42496 3.359598,-35.86689 -1.734556,-47.36005 z"
       style="display:inline;fill:#ff7f2a;fill-opacity:1;stroke:#000000;stroke-width:0.264583px;stroke-linecap:butt;stroke-linejoin:miter;stroke-opacity:1"
       inkscape:export-xdpi="96"
       inkscape:export-ydpi="96"
       inkscape:export-filename="C:\Users\jose zambrano\Desktop\Proyecto Game\Imagenes\perfilverderaro.png" />
    <path
       sodipodi:nodetypes="cccccccc"
       inkscape:connector-curvature="0"
       id="path2063"
       d="m 226.23501,230.86817 c -3.13303,3.41645 -4.31394,6.25523 -4.31394,6.25523 0,0 -3.01976,6.90235 0.64709,7.54942 3.66685,0.64708 2.48594,-7.76509 6.03954,-9.275 3.5339,-6.59385 2.42107,-9.02547 4.96102,-12.9418 2.58838,-3.66686 1.07877,-9.93362 2.40585,-17.81421 -0.10784,-6.36308 -1.92053,-6.88315 -5.20992,-4.40264 -13.70922,9.22107 1.3546,27.75375 -4.52964,30.629 z"
       style="display:inline;fill:#ff7f2a;fill-opacity:1;stroke:#000000;stroke-width:0.264583px;stroke-linecap:butt;stroke-linejoin:miter;stroke-opacity:1"
       inkscape:export-xdpi="96"
       inkscape:export-ydpi="96"
       inkscape:export-filename="C:\Users\jose zambrano\Desktop\Proyecto Game\Imagenes\perfilverderaro.png" />
    <path
       sodipodi:nodetypes="cscccc"
       inkscape:connector-curvature="0"
       id="path2065"
       d="m 93.00807,249.96057 c 0,0 -8.297815,-5.98164 -10.048431,-15.99411 -0.880627,-5.0367 0.303641,-9.46854 -3.267982,-13.41024 0,0 -3.113594,-10.06376 1.20036,-13.94631 4.771498,-3.27245 7.728092,5.06122 7.728092,5.06122 z"
       style="display:inline;fill:#ff7f2a;fill-opacity:1;stroke:#000000;stroke-width:0.264583px;stroke-linecap:butt;stroke-linejoin:miter;stroke-opacity:1"
       inkscape:export-xdpi="96"
       inkscape:export-ydpi="96"
       inkscape:export-filename="C:\Users\jose zambrano\Desktop\Proyecto Game\Imagenes\perfilverderaro.png" />
    <path
       style="display:inline;fill:#6093d7;fill-rule:evenodd;stroke-width:0.264583;fill-opacity:1"
       id="path65"
       sodipodi:type="arc"
       sodipodi:cx="156.2092"
       sodipodi:cy="202.71114"
       sodipodi:rx="136.3844"
       sodipodi:ry="135.41942"
       sodipodi:start="0"
       sodipodi:end="6.2766054"
       sodipodi:open="true"
       sodipodi:arc-type="arc"
       d="M 292.5936,202.71114 A 136.3844,135.41942 0 0 1 156.43355,338.13037 136.3844,135.41942 0 0 1 19.825537,203.15666 136.3844,135.41942 0 0 1 155.53615,67.293366 136.3844,135.41942 0 0 1 292.59065,201.8201" />
    <path
       sodipodi:nodetypes="cccscccsc"
       inkscape:connector-curvature="0"
       id="path2067"
       d="m 149.22026,207.98026 c 0,0 -9.55702,8.40361 -12.54427,15.85058 0.21569,9.71795 11.46896,12.99276 14.96272,13.22932 1.73981,-0.034 3.23238,-0.50051 7.58306,-3.62986 2.59998,-1.87009 8.44062,-3.8803 10.16618,-1.07622 0.6471,1.50988 2.61535,-0.13477 3.77473,-1.40205 0.48531,-0.75493 1.29419,-5.93168 -2.04914,-8.19649 -5.60813,-2.3727 -14.45171,-13.04968 -16.8244,-15.85376 -2.37266,-2.80408 -5.06888,1.07848 -5.06888,1.07848 z"
       style="display:inline;opacity:0.219;fill:none;fill-opacity:1;stroke:#000000;stroke-width:0.265;stroke-linecap:butt;stroke-linejoin:miter;stroke-miterlimit:4;stroke-dasharray:none;stroke-opacity:1"
       inkscape:export-xdpi="96"
       inkscape:export-ydpi="96"
       inkscape:export-filename="C:\Users\jose zambrano\Desktop\Proyecto Game\Imagenes\perfilverderaro.png" />
    <path
       sodipodi:nodetypes="cccc"
       inkscape:connector-curvature="0"
       id="path2069"
       d="m 136.68908,223.7198 c 0,0 -9.4305,5.5349 -3.39098,10.4959 6.6653,-4.79063 7.67786,-0.86791 10.80113,0.24339 -5.26831,-2.71479 -7.37941,-6.70495 -7.41015,-10.73929 z"
       style="display:inline;opacity:0.536;fill:#241c22;fill-opacity:1;stroke:#000000;stroke-width:0.265;stroke-linecap:butt;stroke-linejoin:miter;stroke-miterlimit:4;stroke-dasharray:none;stroke-opacity:1"
       inkscape:export-xdpi="96"
       inkscape:export-ydpi="96"
       inkscape:export-filename="C:\Users\jose zambrano\Desktop\Proyecto Game\Imagenes\perfilverderaro.png" />
    <path
       sodipodi:nodetypes="sscscs"
       inkscape:connector-curvature="0"
       id="path2071"
       d="m 143.7201,234.66635 c -0.1962,0.64166 -1.99051,-0.82507 -4.45498,-0.90787 -2.70565,-0.0909 -5.17224,0.78931 -4.90765,-0.0761 0.2646,-0.86534 2.62148,-2.20853 5.14135,-1.64683 0.56893,0.1267 4.48589,1.76539 4.22129,2.63077 z"
       style="display:inline;fill:#241c22;fill-rule:evenodd;stroke-width:0.264583"
       inkscape:export-xdpi="96"
       inkscape:export-ydpi="96"
       inkscape:export-filename="C:\Users\jose zambrano\Desktop\Proyecto Game\Imagenes\perfilverderaro.png" />
    <path
       sodipodi:nodetypes="cscsc"
       inkscape:connector-curvature="0"
       id="path2073"
       d="m 169.88795,232.5782 c 0.0334,0.90428 -2.14305,1.80259 -4.86129,2.00639 -2.71823,0.20383 -6.70284,0.7799 -6.73625,-0.12443 -0.0334,-0.9043 4.58337,-3.17529 7.30159,-3.37911 2.71824,-0.20382 4.26252,0.59279 4.29595,1.49708 z"
       style="display:inline;fill:#241c22;fill-rule:evenodd;stroke-width:0.264583"
       inkscape:export-xdpi="96"
       inkscape:export-ydpi="96"
       inkscape:export-filename="C:\Users\jose zambrano\Desktop\Proyecto Game\Imagenes\perfilverderaro.png" />
    <path
       sodipodi:nodetypes="cccccccccccccccczczccccc"
       inkscape:connector-curvature="0"
       id="path2077"
       d="m 94.258482,260.67175 c 0.311599,14.30233 5.340431,23.6935 10.676458,36.75758 8.01534,15.22452 13.59704,18.67646 26.84371,28.67395 15.74413,5.28494 28.53145,3.99959 44.23112,0.61009 21.56849,-6.33732 40.67353,-24.1567 45.14624,-43.9261 3.11494,-11.85692 4.63299,-22.18898 4.57563,-33.24957 l -0.61007,-8.54117 -3.05044,2.44034 -1.10576,-2.40223 -0.68635,-3.77486 -1.2583,2.82161 c 1.65711,18.90484 -2.9357,44.43771 -15.86219,44.8412 -2.92436,-6.37762 -3.89017,-14.5131 -7.01597,-19.82772 -3.92923,8.19982 -0.91986,9.22274 -2.74538,23.48825 -9.90611,21.75355 -19.45232,27.54245 -32.04475,24.08298 0,0 -3.2443,-2.48801 -7.63241,-10.65216 -1.15265,8.66025 -10.22942,12.58621 -14.86406,11.09888 -4.63463,-1.48734 -19.33085,-18.02592 -25.37984,-39.17173 -1.08592,-1.7541 -1.04862,-2.21236 -2.44034,-1.52524 -1.39171,0.68713 -0.61008,6.40589 -0.61008,6.40589 -7.15299,12.86045 -8.00767,-10.83825 -13.800909,-35.27387 l -5.386078,-9.68149 1.636228,13.50536 z"
       style="display:inline;opacity:1;fill:#241c22;stroke:#000000;stroke-width:0.264583px;stroke-linecap:butt;stroke-linejoin:miter;stroke-opacity:1"
       inkscape:export-xdpi="96"
       inkscape:export-ydpi="96"
       inkscape:export-filename="C:\Users\jose zambrano\Desktop\Proyecto Game\Imagenes\perfilverderaro.png" />
    <path
       sodipodi:nodetypes="cccczcccccsccccczzczccczccccccccccczcczzczccczczccccc"
       inkscape:connector-curvature="0"
       id="path2075"
       d="m 82.719706,205.94452 -3.403307,-6.94646 -1.503533,-8.86156 0.807267,-6.74793 c -2.885041,-1.40004 -6.684071,-9.26221 -7.681574,-17.84045 -0.997502,-8.57825 3.266126,-22.81503 3.266126,-22.81503 0,0 1.372695,-11.74412 -3.66051,12.20172 0.368768,-23.75978 17.99749,-32.02945 17.99749,-32.02945 l -0.45756,-6.10082 c 0,0 -5.033206,-8.99875 -2.745375,-17.844984 2.745375,-9.76135 4.423907,-14.330846 13.72689,-17.082372 7.48761,-2.214584 20.2853,4.118072 20.2853,4.118072 l -10.98151,-2.135285 c 0,0 -10.676469,-0.610091 -14.642025,4.57563 -5.49075,9.151276 -5.18572,16.472279 -0.91512,17.692459 7.473525,-8.846229 18.607565,-12.811784 18.607565,-12.811784 0,0 6.10044,-6.69261 12.50672,-6.405884 6.40628,0.286708 8.71472,-5.351344 21.81047,-5.490768 13.09578,-0.139456 18.60758,4.118072 18.60758,4.118072 0,0 9.07803,0.198161 18.6076,0.762605 9.52956,0.564444 19.67521,14.489529 19.67521,14.489529 l 10.829,7.16847 9.30378,4.57563 c 0,0 8.47831,9.82921 11.13404,16.47229 2.65573,6.64305 0.45756,23.48826 0.45756,23.48826 l 1.98277,4.11805 c 0,0 0.19025,5.98875 -2.13528,10.2189 4.08034,2.55242 3.66049,3.20296 3.66049,3.20296 l -5.64328,12.20167 -1.98277,8.99874 -0.6101,9.15127 -3.66049,6.55843 0.15254,17.84496 -3.88929,11.97287 -2.1353,-0.38126 c 0,0 1.14612,-0.0472 1.754,-8.38866 0.60788,-8.34139 -0.6101,-22.26808 -0.6101,-22.26808 l -2.13528,-13.42187 c 0,0 -3.82286,-14.23162 -3.46013,-19.79073 0.36273,-5.55909 3.02684,-7.92748 2.83789,-12.11235 -0.18894,-4.18487 -5.78364,-11.4129 -5.78364,-11.4129 0,0 -6.24578,-13.86105 -11.65032,-18.5616 -5.40455,-4.70053 -21.11555,-7.38232 -21.11555,-7.38232 0,0 -20.52242,-4.6679 -26.45568,2.32033 -3.77623,-7.24777 -17.64904,-3.83021 -17.64904,-3.83021 0,0 -22.97904,0.61592 -28.59099,5.7281 -5.61193,5.1122 -12.192139,15.11627 -12.192139,15.11627 0,0 -3.247773,13.7147 -2.338852,18.87878 0.908921,5.16408 2.976414,14.448 2.976414,14.448 l -5.937495,30.45189 0.468407,12.86408 -2.370811,-6.38606 z"
       style="display:inline;opacity:1;fill:#241c22;stroke:#000000;stroke-width:0.264583px;stroke-linecap:butt;stroke-linejoin:miter;stroke-opacity:1"
       inkscape:export-xdpi="96"
       inkscape:export-ydpi="96"
       inkscape:export-filename="C:\Users\jose zambrano\Desktop\Proyecto Game\Imagenes\perfilverderaro.png" />
    <path
       sodipodi:nodetypes="cccscc"
       inkscape:connector-curvature="0"
       id="path2079"
       d="m 149.46869,285.73724 c -2.05845,3.03896 -2.46303,6.23711 -3.05041,9.76133 l 5.18571,2.44033 c 0,0 5.79581,-2.44033 5.79581,-3.96553 0,-1.5252 -2.1353,-7.321 -2.1353,-7.321 z"
       style="display:inline;opacity:1;fill:#241c22;stroke:#000000;stroke-width:0.264583px;stroke-linecap:butt;stroke-linejoin:miter;stroke-opacity:1"
       inkscape:export-xdpi="96"
       inkscape:export-ydpi="96"
       inkscape:export-filename="C:\Users\jose zambrano\Desktop\Proyecto Game\Imagenes\perfilverderaro.png" />
    <path
       sodipodi:nodetypes="ccccsc"
       inkscape:connector-curvature="0"
       id="path2081"
       d="m 147.61207,240.61667 -4.07655,13.70895 c -24.69141,1.53427 -19.93206,3.74176 -31.65069,16.44085 l -0.34819,-12.88316 c 3.85964,-5.11323 6.91302,-7.63098 12.36609,-9.74361 9.747,-3.77617 17.84597,-5.1889 23.70934,-7.52303 z"
       style="display:inline;opacity:1;fill:#241c22;stroke:#000000;stroke-width:0.264583px;stroke-linecap:butt;stroke-linejoin:miter;stroke-opacity:1"
       inkscape:export-xdpi="96"
       inkscape:export-ydpi="96"
       inkscape:export-filename="C:\Users\jose zambrano\Desktop\Proyecto Game\Imagenes\perfilverderaro.png" />
    <path
       sodipodi:nodetypes="ccccc"
       inkscape:connector-curvature="0"
       id="path2083"
       d="m 162.8391,253.55217 c 17.26749,3.08218 32.53233,6.99951 39.99599,11.64315 -2.3979,-7.21678 -5.07521,-11.10582 -9.2578,-15.42552 -5.95053,-3.0594 -19.94028,-0.53148 -34.98709,-9.83091 1.52386,7.36554 1.22255,5.88018 4.2489,13.61328 z"
       style="display:inline;opacity:1;fill:#241c22;stroke:#000000;stroke-width:0.265;stroke-linecap:butt;stroke-linejoin:miter;stroke-miterlimit:4;stroke-dasharray:none;stroke-opacity:1"
       inkscape:export-xdpi="96"
       inkscape:export-ydpi="96"
       inkscape:export-filename="C:\Users\jose zambrano\Desktop\Proyecto Game\Imagenes\perfilverderaro.png" />
    <path
       sodipodi:nodetypes="ccscczcc"
       inkscape:connector-curvature="0"
       id="path2085"
       d="m 132.20376,175.97513 6.2182,5.71914 c 0,0 -18.20067,-3.18007 -20.34956,-2.99359 -10.54564,0.91512 -19.549966,2.39884 -19.549966,2.39884 l 2.819396,-4.90869 c 0,0 2.66465,-1.06587 4.42497,-1.3682 1.76033,-0.30233 9.68658,-0.29423 9.68658,-0.29423 z"
       style="display:inline;opacity:1;fill:#241c22;stroke:#000000;stroke-width:0.264583px;stroke-linecap:butt;stroke-linejoin:miter;stroke-opacity:1"
       inkscape:export-xdpi="96"
       inkscape:export-ydpi="96"
       inkscape:export-filename="C:\Users\jose zambrano\Desktop\Proyecto Game\Imagenes\perfilverderaro.png" />
    <path
       sodipodi:nodetypes="czccczcc"
       inkscape:connector-curvature="0"
       id="path2087"
       d="m 171.90103,175.72241 c 0,0 -2.99055,1.68688 -4.4033,4.09377 -1.41273,2.40688 27.35207,-0.6426 27.35207,-0.6426 l 10.58001,-1.11999 c 0,0 7.86977,3.37264 5.71279,0.56856 -2.06506,-2.62026 -6.72632,-6.73091 -7.85892,-7.62339 -1.13259,-0.89252 -7.64324,2.69753 -7.64324,2.69753 z"
       style="display:inline;opacity:1;fill:#241c22;stroke:#000000;stroke-width:0.264583px;stroke-linecap:butt;stroke-linejoin:miter;stroke-opacity:1"
       inkscape:export-xdpi="96"
       inkscape:export-ydpi="96"
       inkscape:export-filename="C:\Users\jose zambrano\Desktop\Proyecto Game\Imagenes\perfilverderaro.png" />
    <path
       sodipodi:nodetypes="ccccscsccsccccsccc"
       inkscape:connector-curvature="0"
       id="path2089"
       d="m 225.54092,188.06178 -0.86281,6.68663 c -5.12387,-0.40474 -5.63824,-0.44846 -8.62789,0 l -3.66683,13.58894 c 0,0 -0.33854,0.0783 -0.9605,0.21307 -6.45348,1.39904 -43.42105,8.89 -49.32316,-1.7338 0,0 -6.06569,-11.25775 -6.06569,-14.06181 0,-2.80406 -9.22265,-0.59476 -9.22265,-0.59476 -1.84603,9.51485 -3.02079,14.30304 -7.98081,17.68719 -1.72559,0 -41.862459,10.06226 -45.943534,-1.29419 -3.68853,-10.26413 -4.398791,-13.56276 -4.398791,-13.56276 l 0.7996,-10.12695 c 7.713742,-2.19322 27.073355,-9.25013 56.445035,-0.0369 l 11.86337,-0.2157 c 0,0 3.45115,-1.72557 14.02032,-3.45115 0.29588,-0.0482 0.60088,-0.0954 0.91436,-0.1414 17.13654,-3.86866 39.24541,-3.57347 48.80704,5.24409 z"
       style="display:inline;opacity:0.98;fill:#000000;stroke:#000000;stroke-width:0.264583px;stroke-linecap:butt;stroke-linejoin:miter;stroke-opacity:1"
       inkscape:export-xdpi="96"
       inkscape:export-ydpi="96"
       inkscape:export-filename="C:\Users\jose zambrano\Desktop\Proyecto Game\Imagenes\perfilverderaro.png" />
    <path
       sodipodi:nodetypes="cscccc"
       inkscape:connector-curvature="0"
       id="path2091"
       d="m 161.17377,196.63733 c 1.29707,4.61445 3.27281,10.79679 8.05678,11.7322 13.39731,2.61955 36.51239,1.48817 41.36897,-3.06349 2.44336,-3.11347 3.65417,-17.78959 1.93638,-20.34252 -3.7167,-3.12547 -15.24619,-2.59678 -19.84229,-2.63622 -13.88526,0.0995 -37.51897,-0.88466 -31.51984,14.31003 z"
       style="display:inline;opacity:0.98;fill:#ececec;stroke:#000000;stroke-width:0.264583px;stroke-linecap:butt;stroke-linejoin:miter;stroke-opacity:1"
       inkscape:export-xdpi="96"
       inkscape:export-ydpi="96"
       inkscape:export-filename="C:\Users\jose zambrano\Desktop\Proyecto Game\Imagenes\perfilverderaro.png" />
    <path
       sodipodi:nodetypes="ccccc"
       inkscape:connector-curvature="0"
       id="path2093"
       d="m 140.4668,203.53967 c -4.31392,5.3924 -22.6482,6.4709 -22.6482,6.4709 -9.49903,-0.32619 -17.03618,1.92374 -23.358503,-2.99358 -4.458641,-13.50698 -1.20454,-19.42579 9.122483,-21.59592 19.40331,-0.32371 47.62122,-9.23837 36.88422,18.1186 z"
       style="display:inline;opacity:0.98;fill:#e6e6e6;stroke:#000000;stroke-width:0.264583px;stroke-linecap:butt;stroke-linejoin:miter;stroke-opacity:1"
       inkscape:export-xdpi="96"
       inkscape:export-ydpi="96"
       inkscape:export-filename="C:\Users\jose zambrano\Desktop\Proyecto Game\Imagenes\perfilverderaro.png" />
    <path
       sodipodi:nodetypes="czccsccccc"
       inkscape:connector-curvature="0"
       id="path2095"
       d="m 154.30417,259.54261 c -6.21572,-2.50045 -4.55837,-2.89672 -9.10345,-3.21379 -4.54507,-0.31706 -17.67391,3.80376 -17.67391,3.80376 l -4.799,2.2955 c 0,0 12.32038,7.41033 16.33692,10.16339 2.91806,2.0001 29.01548,2.93174 31.45581,0.18636 10.45514,-5.61508 16.31525,-11.41057 16.2661,-11.41741 l -6.94514,-1.38801 c -2.01437,-0.87189 -13.64261,-3.02213 -17.42439,-3.38318 -4.40328,-0.76262 -8.11294,2.95338 -8.11294,2.95338 z"
       style="display:inline;opacity:0.99;fill:#000000;fill-opacity:0;stroke:#000000;stroke-width:0.264583px;stroke-linecap:butt;stroke-linejoin:miter;stroke-opacity:1"
       inkscape:export-xdpi="96"
       inkscape:export-ydpi="96"
       inkscape:export-filename="C:\Users\jose zambrano\Desktop\Proyecto Game\Imagenes\perfilverderaro.png" />
    <path
       sodipodi:nodetypes="ccccc"
       inkscape:connector-curvature="0"
       id="path2097"
       d="m 144.4426,268.44454 9.32914,0.10413 0.54265,-5.4645 -9.21335,-2.24201 z"
       style="display:inline;opacity:0.99;fill:#ffffff;stroke:#000000;stroke-width:0.264583px;stroke-linecap:butt;stroke-linejoin:miter;stroke-opacity:1"
       inkscape:export-xdpi="96"
       inkscape:export-ydpi="96"
       inkscape:export-filename="C:\Users\jose zambrano\Desktop\Proyecto Game\Imagenes\perfilverderaro.png" />
    <path
       sodipodi:nodetypes="cccc"
       inkscape:connector-curvature="0"
       id="path2099"
       d="m 135.83207,262.54933 1.19803,3.70031 -8.08743,-2.01439 z"
       style="display:inline;opacity:0.99;fill:#ffffff;stroke:#000000;stroke-width:0.264583px;stroke-linecap:butt;stroke-linejoin:miter;stroke-opacity:1"
       inkscape:export-xdpi="96"
       inkscape:export-ydpi="96"
       inkscape:export-filename="C:\Users\jose zambrano\Desktop\Proyecto Game\Imagenes\perfilverderaro.png" />
    <path
       sodipodi:nodetypes="ccccc"
       inkscape:connector-curvature="0"
       id="path2101"
       d="m 137.40685,266.53215 6.93375,1.73027 0.41452,-7.22459 -8.57109,1.4629 z"
       style="display:inline;opacity:0.99;fill:#ffffff;stroke:#000000;stroke-width:0.264583px;stroke-linecap:butt;stroke-linejoin:miter;stroke-opacity:1"
       inkscape:export-xdpi="96"
       inkscape:export-ydpi="96"
       inkscape:export-filename="C:\Users\jose zambrano\Desktop\Proyecto Game\Imagenes\perfilverderaro.png" />
    <path
       sodipodi:nodetypes="ccscc"
       inkscape:connector-curvature="0"
       id="path2103"
       d="m 154.78517,263.22093 c 2.58703,-1.48355 1.65862,-1.41449 7.76512,-1.94127 0,0 0.48531,7.60334 -0.0539,7.60334 -0.53924,0 -8.52007,-0.26961 -8.52007,-0.26961 z"
       style="display:inline;opacity:0.99;fill:#ffffff;stroke:#000000;stroke-width:0.264583px;stroke-linecap:butt;stroke-linejoin:miter;stroke-opacity:1"
       inkscape:export-xdpi="96"
       inkscape:export-ydpi="96"
       inkscape:export-filename="C:\Users\jose zambrano\Desktop\Proyecto Game\Imagenes\perfilverderaro.png" />
    <path
       sodipodi:nodetypes="ccccc"
       inkscape:connector-curvature="0"
       id="path2105"
       d="m 162.79421,261.23235 7.10783,0.21637 0.18706,6.22087 c -2.34212,0.27302 -4.54327,0.93219 -6.95273,1.01529 z"
       style="display:inline;opacity:0.99;fill:#ffffff;stroke:#000000;stroke-width:0.264583px;stroke-linecap:butt;stroke-linejoin:miter;stroke-opacity:1"
       inkscape:export-xdpi="96"
       inkscape:export-ydpi="96"
       inkscape:export-filename="C:\Users\jose zambrano\Desktop\Proyecto Game\Imagenes\perfilverderaro.png" />
    <path
       sodipodi:nodetypes="ccccc"
       inkscape:connector-curvature="0"
       id="path2107"
       d="m 170.20915,261.29547 5.56998,1.01645 0.20805,3.52628 -5.57654,1.72557 z"
       style="display:inline;opacity:0.99;fill:#ffffff;stroke:#000000;stroke-width:0.264583px;stroke-linecap:butt;stroke-linejoin:miter;stroke-opacity:1"
       inkscape:export-xdpi="96"
       inkscape:export-ydpi="96"
       inkscape:export-filename="C:\Users\jose zambrano\Desktop\Proyecto Game\Imagenes\perfilverderaro.png" />
    <path
       sodipodi:nodetypes="cccc"
       style="display:inline;opacity:0.99;fill:#ffffff;stroke:#000000;stroke-width:0.264583px;stroke-linecap:butt;stroke-linejoin:miter;stroke-opacity:1"
       d="m 176.14455,262.35632 0.11154,3.37115 5.98595,-2.74023 z"
       id="path2109"
       inkscape:connector-curvature="0"
       inkscape:export-xdpi="96"
       inkscape:export-ydpi="96"
       inkscape:export-filename="C:\Users\jose zambrano\Desktop\Proyecto Game\Imagenes\perfilverderaro.png" />
  </g>
</svg>
