<?xml version="1.0" encoding="UTF-8" standalone="no"?>
<svg
   xmlns:dc="http://purl.org/dc/elements/1.1/"
   xmlns:cc="http://creativecommons.org/ns#"
   xmlns:rdf="http://www.w3.org/1999/02/22-rdf-syntax-ns#"
   xmlns:svg="http://www.w3.org/2000/svg"
   xmlns="http://www.w3.org/2000/svg"
   xmlns:sodipodi="http://sodipodi.sourceforge.net/DTD/sodipodi-0.dtd"
   xmlns:inkscape="http://www.inkscape.org/namespaces/inkscape"
   width="179.7831mm"
   height="190.63211mm"
   viewBox="0 0 179.7831 190.63212"
   version="1.1"
   id="svg109"
   inkscape:version="1.0.1 (3bc2e813f5, 2020-09-07)"
   sodipodi:docname="iconazul.svg">
  <defs
     id="defs103" />
  <sodipodi:namedview
     id="base"
     pagecolor="#ffffff"
     bordercolor="#666666"
     borderopacity="1.0"
     inkscape:pageopacity="0.0"
     inkscape:pageshadow="2"
     inkscape:zoom="0.69951489"
     inkscape:cx="339.74758"
     inkscape:cy="360.24966"
     inkscape:document-units="mm"
     inkscape:current-layer="layer1"
     inkscape:document-rotation="0"
     showgrid="false"
     fit-margin-top="0"
     fit-margin-left="0"
     fit-margin-right="0"
     fit-margin-bottom="0" />
  <metadata
     id="metadata106">
    <rdf:RDF>
      <cc:Work
         rdf:about="">
        <dc:format>image/svg+xml</dc:format>
        <dc:type
           rdf:resource="http://purl.org/dc/dcmitype/StillImage" />
        <dc:title></dc:title>
      </cc:Work>
    </rdf:RDF>
  </metadata>
  <g
     inkscape:label="Capa 1"
     inkscape:groupmode="layer"
     id="layer1"
     transform="translate(14.882221,-23.380426)">
    <path
       sodipodi:nodetypes="cccccccccccccscccsccccc"
       inkscape:connector-curvature="0"
       id="path2061"
       d="m 31.724429,105.99377 c 0.0894,-2.1448 1.0399,-7.710671 0.37797,-11.244791 0,0 -1.03943,-13.79612 4.06325,-18.14285 9.46817,-7.93254 19.80974,-8.59896 31.56101,-8.59896 5.67357,0.63831 5.14835,5.30439 8.69346,3.82701 0,0 8.22098,-5.43341 13.51264,-3.9215 5.29166,1.5119 15.213551,5.10267 15.213551,5.10267 10.03172,6.51787 9.15791,15.87014 9.5439,23.90701 0.19904,4.785261 0.0675,7.863721 -0.65278,11.767861 l 0.3693,9.3988 1.13393,5.76414 4.19803,-4.04934 -0.4954,7.35711 c -0.0327,2.40613 1.51856,6.84865 0.62373,11.25875 -2.12897,10.49264 -2.52648,19.28407 -4.82456,21.99711 0.57663,7.65681 -2.36665,15.6913 -8.66773,19.37684 -5.53042,9.47747 -11.922491,12.04286 -21.639141,14.55209 -7.9375,1.70089 -18.52084,1.5119 -27.21428,-5.38616 -8.69346,-6.89807 -15.78051,-20.12724 -15.78051,-20.12724 l -2.84432,-11.33928 c 0,0 -1.31342,-8.97694 -1.88038,-9.82738 -0.56697,-0.85045 -4.31152,-9.68425 -4.21703,-12.33009 1.029,-17.61061 2.08143,-22.22124 -1.07464,-29.3418 z"
       style="display:inline;fill:#ff7f2a;fill-opacity:1;stroke:#000000;stroke-width:0.264583px;stroke-linecap:butt;stroke-linejoin:miter;stroke-opacity:1"
       inkscape:export-xdpi="96"
       inkscape:export-ydpi="96"
       inkscape:export-filename="C:\Users\jose zambrano\Desktop\Proyecto Game\Imagenes\perfilverderaro.png" />
    <path
       sodipodi:nodetypes="cccccccc"
       inkscape:connector-curvature="0"
       id="path2063"
       d="m 118.68882,139.46854 c -1.94106,2.11665 -2.67268,3.87541 -2.67268,3.87541 0,0 -1.87089,4.27633 0.40089,4.67722 2.27179,0.4009 1.54017,-4.81084 3.74178,-5.7463 2.18942,-4.0852 1.49998,-5.59171 3.0736,-8.01806 1.60361,-2.27179 0.66834,-6.15435 1.49053,-11.03675 -0.0668,-3.94223 -1.18985,-4.26444 -3.22779,-2.72764 -8.4935,5.71289 0.83924,17.19476 -2.80633,18.97612 z"
       style="display:inline;fill:#ff7f2a;fill-opacity:1;stroke:#000000;stroke-width:0.264583px;stroke-linecap:butt;stroke-linejoin:miter;stroke-opacity:1"
       inkscape:export-xdpi="96"
       inkscape:export-ydpi="96"
       inkscape:export-filename="C:\Users\jose zambrano\Desktop\Proyecto Game\Imagenes\perfilverderaro.png" />
    <path
       sodipodi:nodetypes="cscccc"
       inkscape:connector-curvature="0"
       id="path2065"
       d="m 36.148399,151.29719 c 0,0 -5.14089,-3.70591 -6.22548,-9.90912 -0.54559,-3.12047 0.18812,-5.86621 -2.02467,-8.30827 0,0 -1.92902,-6.23498 0.74368,-8.64041 2.95617,-2.02744 4.78792,3.13567 4.78792,3.13567 z"
       style="display:inline;fill:#ff7f2a;fill-opacity:1;stroke:#000000;stroke-width:0.264583px;stroke-linecap:butt;stroke-linejoin:miter;stroke-opacity:1"
       inkscape:export-xdpi="96"
       inkscape:export-ydpi="96"
       inkscape:export-filename="C:\Users\jose zambrano\Desktop\Proyecto Game\Imagenes\perfilverderaro.png" />
    <rect
       style="display:inline;opacity:1;fill:#6094d7;fill-opacity:1;fill-rule:evenodd;stroke:none;stroke-width:1.34938;stroke-linejoin:round;stroke-dashoffset:500"
       id="rect66"
       width="179.7831"
       height="190.63211"
       x="-14.882221"
       y="23.380426"
       inkscape:export-xdpi="96"
       inkscape:export-ydpi="96"
       inkscape:export-filename="C:\Users\jose zambrano\Desktop\Proyecto Game\Imagenes\bancoinegro.png" />
    <path
       sodipodi:nodetypes="cccscccsc"
       inkscape:connector-curvature="0"
       id="path2067"
       d="m 70.974519,125.28839 c 0,0 -5.92103,5.20644 -7.77177,9.82019 0.13363,6.02073 7.10556,8.04963 9.27012,8.19619 1.07789,-0.0211 2.00261,-0.31009 4.69807,-2.24887 1.6108,-1.15861 5.22935,-2.40403 6.29843,-0.66677 0.40091,0.93544 1.62032,-0.0835 2.33861,-0.86864 0.30068,-0.46771 0.80181,-3.67496 -1.26952,-5.07811 -3.47452,-1.47 -8.95354,-8.0849 -10.42352,-9.82216 -1.46998,-1.73726 -3.14042,0.66817 -3.14042,0.66817 z"
       style="display:inline;opacity:0.219;fill:none;fill-opacity:1;stroke:#000000;stroke-width:0.264999;stroke-linecap:butt;stroke-linejoin:miter;stroke-miterlimit:4;stroke-dasharray:none;stroke-opacity:1"
       inkscape:export-xdpi="96"
       inkscape:export-ydpi="96"
       inkscape:export-filename="C:\Users\jose zambrano\Desktop\Proyecto Game\Imagenes\perfilverderaro.png" />
    <path
       sodipodi:nodetypes="cccc"
       inkscape:connector-curvature="0"
       id="path2069"
       d="m 63.210859,135.03978 c 0,0 -5.84264,3.42913 -2.10087,6.50271 4.12947,-2.96802 4.75679,-0.53771 6.69181,0.15079 -3.26397,-1.68194 -4.57189,-4.15403 -4.59094,-6.6535 z"
       style="display:inline;opacity:0.536;fill:#241c22;fill-opacity:1;stroke:#000000;stroke-width:0.264999;stroke-linecap:butt;stroke-linejoin:miter;stroke-miterlimit:4;stroke-dasharray:none;stroke-opacity:1"
       inkscape:export-xdpi="96"
       inkscape:export-ydpi="96"
       inkscape:export-filename="C:\Users\jose zambrano\Desktop\Proyecto Game\Imagenes\perfilverderaro.png" />
    <path
       sodipodi:nodetypes="sscscs"
       inkscape:connector-curvature="0"
       id="path2071"
       d="m 67.566909,141.82169 c -0.12155,0.39754 -1.23321,-0.51117 -2.76007,-0.56247 -1.67628,-0.0563 -3.20445,0.48901 -3.04052,-0.0471 0.16393,-0.53613 1.62413,-1.36829 3.18531,-1.0203 0.35248,0.0785 2.77922,1.09375 2.61529,1.62989 z"
       style="display:inline;fill:#241c22;fill-rule:evenodd;stroke-width:0.264583"
       inkscape:export-xdpi="96"
       inkscape:export-ydpi="96"
       inkscape:export-filename="C:\Users\jose zambrano\Desktop\Proyecto Game\Imagenes\perfilverderaro.png" />
    <path
       sodipodi:nodetypes="cscsc"
       inkscape:connector-curvature="0"
       id="path2073"
       d="m 83.779139,140.52798 c 0.0207,0.56025 -1.32773,1.11679 -3.0118,1.24306 -1.68407,0.12628 -4.15273,0.48318 -4.17343,-0.0771 -0.0207,-0.56025 2.83962,-1.96724 4.52369,-2.09351 1.68407,-0.12628 2.64083,0.36726 2.66154,0.92751 z"
       style="display:inline;fill:#241c22;fill-rule:evenodd;stroke-width:0.264583"
       inkscape:export-xdpi="96"
       inkscape:export-ydpi="96"
       inkscape:export-filename="C:\Users\jose zambrano\Desktop\Proyecto Game\Imagenes\perfilverderaro.png" />
    <path
       sodipodi:nodetypes="cccccccccccccccczczccccc"
       inkscape:connector-curvature="0"
       id="path2077"
       d="m 36.923089,157.93327 c 0.19305,8.86097 3.30865,14.67925 6.61457,22.77307 4.96589,9.43231 8.42401,11.57095 16.63096,17.76487 9.75423,3.27427 17.67658,2.47794 27.40328,0.37798 13.362711,-3.92627 25.199181,-14.96622 27.970251,-27.2143 1.92984,-7.34593 2.87034,-13.74713 2.83482,-20.59969 l -0.37798,-5.29166 -1.88989,1.5119 -0.68507,-1.48829 -0.42523,-2.33871 -0.77958,1.74812 c 1.02666,11.71245 -1.8188,27.53128 -9.82738,27.78126 -1.81178,-3.95124 -2.41014,-8.99156 -4.34672,-12.28422 -2.434351,5.08018 -0.569901,5.71393 -1.700901,14.55209 -6.1373,13.47736 -12.05162,17.06386 -19.85323,14.92055 0,0 -2.01,-1.54144 -4.72865,-6.59952 -0.71412,5.36544 -6.33762,7.79776 -9.20899,6.87628 -2.87138,-0.92148 -11.97638,-11.16791 -15.72402,-24.26874 -0.67278,-1.08675 -0.64967,-1.37067 -1.51191,-0.94496 -0.86223,0.42571 -0.37797,3.96875 -0.37797,3.96875 -4.43162,7.96766 -4.96113,-6.71481 -8.55032,-21.85384 l -3.33693,-5.99814 1.01372,8.36721 z"
       style="display:inline;opacity:1;fill:#241c22;stroke:#000000;stroke-width:0.264583px;stroke-linecap:butt;stroke-linejoin:miter;stroke-opacity:1"
       inkscape:export-xdpi="96"
       inkscape:export-ydpi="96"
       inkscape:export-filename="C:\Users\jose zambrano\Desktop\Proyecto Game\Imagenes\perfilverderaro.png" />
    <path
       sodipodi:nodetypes="cccczcccccsccccczzczccczccccccccccczcczzczccczczccccc"
       inkscape:connector-curvature="0"
       id="path2075"
       d="m 29.774269,124.02715 -2.10851,-4.30366 -0.93151,-5.49015 0.50014,-4.18067 c -1.78742,-0.86739 -4.1411,-5.73838 -4.7591,-11.053011 -0.618,-5.31463 2.02352,-14.13498 2.02352,-14.13498 0,0 0.85045,-7.27605 -2.26786,7.55954 0.22847,-14.72032 11.1503,-19.84376 11.1503,-19.84376 l -0.28348,-3.77976 c 0,0 -3.11831,-5.57515 -1.70089,-11.05581 1.70089,-6.04762 2.74082,-8.87864 8.50446,-10.58334 4.63893,-1.37204 12.56771,2.55134 12.56771,2.55134 l -6.80357,-1.32291 c 0,0 -6.61458,-0.37798 -9.07143,2.83482 -3.40178,5.66965 -3.2128,10.20536 -0.56696,10.96132 4.6302,-5.48066 11.52827,-7.93751 11.52827,-7.93751 0,0 3.77951,-4.14639 7.74851,-3.96875 3.96899,0.17763 5.39918,-3.31541 13.51262,-3.40179 8.11345,-0.0864 11.52829,2.55134 11.52829,2.55134 0,0 5.62425,0.12277 11.52829,0.47247 5.90401,0.3497 12.189731,8.97695 12.189731,8.97695 l 6.70907,4.44121 5.76413,2.83482 c 0,0 5.25272,6.08966 6.89807,10.20536 1.64535,4.1157 0.28349,14.55209 0.28349,14.55209 l 1.22841,2.55133 c 0,0 0.11788,3.71033 -1.3229,6.3311 2.52796,1.581341 2.26784,1.984381 2.26784,1.984381 l -3.49628,7.55952 -1.22841,5.57515 -0.37799,5.66964 -2.26784,4.06326 0.0945,11.0558 -2.4096,7.41776 -1.32292,-0.23621 c 0,0 0.71009,-0.0293 1.0867,-5.19717 0.3766,-5.16789 -0.378,-13.79614 -0.378,-13.79614 l -1.3229,-8.31548 c 0,0 -2.36845,-8.81717 -2.14371,-12.2613 0.22472,-3.444121 1.87526,-4.911451 1.7582,-7.504171 -0.11705,-2.59273 -3.58324,-7.07084 -3.58324,-7.07084 0,0 -3.86955,-8.58758 -7.21793,-11.49979 -3.348371,-2.9122 -13.082071,-4.5737 -13.082071,-4.5737 0,0 -12.71464,-2.89198 -16.39056,1.43756 -2.33956,-4.49034 -10.93443,-2.373 -10.93443,-2.373 0,0 -14.2366,0.38159 -17.71347,3.54884 -3.47686,3.16725 -7.55361,9.36524 -7.55361,9.36524 0,0 -2.01215,8.49691 -1.44903,11.6963 0.56312,3.19939 1.84403,8.951221 1.84403,8.951221 l -3.67856,18.86639 0.2902,7.96991 -1.46883,-3.95647 z"
       style="display:inline;opacity:1;fill:#241c22;stroke:#000000;stroke-width:0.264583px;stroke-linecap:butt;stroke-linejoin:miter;stroke-opacity:1"
       inkscape:export-xdpi="96"
       inkscape:export-ydpi="96"
       inkscape:export-filename="C:\Users\jose zambrano\Desktop\Proyecto Game\Imagenes\perfilverderaro.png" />
    <path
       sodipodi:nodetypes="cccscc"
       inkscape:connector-curvature="0"
       id="path2079"
       d="m 71.128439,173.46253 c -1.27531,1.88278 -1.52597,3.86419 -1.88988,6.04761 l 3.2128,1.5119 c 0,0 3.59077,-1.5119 3.59077,-2.45684 0,-0.94493 -1.32291,-4.5357 -1.32291,-4.5357 z"
       style="display:inline;opacity:1;fill:#241c22;stroke:#000000;stroke-width:0.264583px;stroke-linecap:butt;stroke-linejoin:miter;stroke-opacity:1"
       inkscape:export-xdpi="96"
       inkscape:export-ydpi="96"
       inkscape:export-filename="C:\Users\jose zambrano\Desktop\Proyecto Game\Imagenes\perfilverderaro.png" />
    <path
       sodipodi:nodetypes="ccccsc"
       inkscape:connector-curvature="0"
       id="path2081"
       d="m 69.978169,145.5082 -2.52562,8.49334 c -15.29749,0.95056 -12.34885,2.3182 -19.6091,10.18589 l -0.21572,-7.98173 c 2.39123,-3.16789 4.28294,-4.72775 7.66138,-6.03663 6.03873,-2.33952 11.05643,-3.21477 14.68906,-4.66087 z"
       style="display:inline;opacity:1;fill:#241c22;stroke:#000000;stroke-width:0.264583px;stroke-linecap:butt;stroke-linejoin:miter;stroke-opacity:1"
       inkscape:export-xdpi="96"
       inkscape:export-ydpi="96"
       inkscape:export-filename="C:\Users\jose zambrano\Desktop\Proyecto Game\Imagenes\perfilverderaro.png" />
    <path
       sodipodi:nodetypes="ccccc"
       inkscape:connector-curvature="0"
       id="path2083"
       d="m 79.412039,153.52235 c 10.69802,1.90956 20.15533,4.33653 24.779421,7.21349 -1.48561,-4.47114 -3.14434,-6.88059 -5.735651,-9.55685 -3.68664,-1.89544 -12.35394,-0.32927 -21.67617,-6.09071 0.9441,4.5633 0.75744,3.64305 2.6324,8.43407 z"
       style="display:inline;opacity:1;fill:#241c22;stroke:#000000;stroke-width:0.264999;stroke-linecap:butt;stroke-linejoin:miter;stroke-miterlimit:4;stroke-dasharray:none;stroke-opacity:1"
       inkscape:export-xdpi="96"
       inkscape:export-ydpi="96"
       inkscape:export-filename="C:\Users\jose zambrano\Desktop\Proyecto Game\Imagenes\perfilverderaro.png" />
    <path
       sodipodi:nodetypes="ccscczcc"
       inkscape:connector-curvature="0"
       id="path2085"
       d="m 60.431989,105.45969 3.85247,3.54329 c 0,0 -11.27618,-1.97021 -12.60752,-1.85468 -6.53352,0.56696 -12.11213,1.48619 -12.11213,1.48619 l 1.74675,-3.04116 c 0,0 1.65088,-0.66036 2.74148,-0.84767 1.09061,-0.18731 6.00129,-0.18228 6.00129,-0.18228 z"
       style="display:inline;opacity:1;fill:#241c22;stroke:#000000;stroke-width:0.264583px;stroke-linecap:butt;stroke-linejoin:miter;stroke-opacity:1"
       inkscape:export-xdpi="96"
       inkscape:export-ydpi="96"
       inkscape:export-filename="C:\Users\jose zambrano\Desktop\Proyecto Game\Imagenes\perfilverderaro.png" />
    <path
       sodipodi:nodetypes="czccczcc"
       inkscape:connector-curvature="0"
       id="path2087"
       d="m 85.026329,105.30312 c 0,0 -1.85278,1.04511 -2.72805,2.53628 -0.87526,1.49118 16.94592,-0.39812 16.94592,-0.39812 l 6.554811,-0.69388 c 0,0 4.8757,2.08951 3.53935,0.35226 -1.27941,-1.62338 -4.16728,-4.17013 -4.86897,-4.72307 -0.7017,-0.55295 -4.735361,1.67125 -4.735361,1.67125 z"
       style="display:inline;opacity:1;fill:#241c22;stroke:#000000;stroke-width:0.264583px;stroke-linecap:butt;stroke-linejoin:miter;stroke-opacity:1"
       inkscape:export-xdpi="96"
       inkscape:export-ydpi="96"
       inkscape:export-filename="C:\Users\jose zambrano\Desktop\Proyecto Game\Imagenes\perfilverderaro.png" />
    <path
       sodipodi:nodetypes="ccccscsccsccccsccc"
       inkscape:connector-curvature="0"
       id="path2089"
       d="m 118.2588,112.94795 -0.53455,4.14268 c -3.17447,-0.25076 -3.49315,-0.27784 -5.34539,0 l -2.27178,8.41899 c 0,0 -0.20974,0.0485 -0.59507,0.13201 -3.99823,0.86677 -26.901411,5.50778 -30.558051,-1.07417 0,0 -3.75798,-6.97471 -3.75798,-8.71196 0,-1.73725 -5.71387,-0.36848 -5.71387,-0.36848 -1.1437,5.8949 -1.87152,8.86141 -4.94449,10.95805 -1.06908,0 -25.93578,6.23405 -28.4642,-0.80181 -2.28522,-6.35912 -2.72526,-8.40278 -2.72526,-8.40278 l 0.49539,-6.27412 c 4.77903,-1.3588 16.77323,-5.73088 34.97038,-0.0229 l 7.34992,-0.13364 c 0,0 2.13815,-1.06908 8.68626,-2.13816 0.18331,-0.0299 0.37227,-0.0591 0.56649,-0.0876 10.6169,-2.39682 24.314401,-2.21394 30.238281,3.24895 z"
       style="display:inline;opacity:0.98;fill:#000000;stroke:#000000;stroke-width:0.264583px;stroke-linecap:butt;stroke-linejoin:miter;stroke-opacity:1"
       inkscape:export-xdpi="96"
       inkscape:export-ydpi="96"
       inkscape:export-filename="C:\Users\jose zambrano\Desktop\Proyecto Game\Imagenes\perfilverderaro.png" />
    <path
       sodipodi:nodetypes="cscccc"
       inkscape:connector-curvature="0"
       id="path2091"
       d="m 78.380279,118.26091 c 0.80361,2.85887 2.02766,6.68912 4.99157,7.26865 8.30027,1.62294 22.621171,0.92199 25.630041,-1.89798 1.51379,-1.92894 2.26394,-11.02149 1.19969,-12.60315 -2.30268,-1.93638 -9.44575,-1.60883 -12.293241,-1.63327 -8.6026,0.0617 -23.24479,-0.54809 -19.52806,8.86575 z"
       style="display:inline;opacity:0.98;fill:#ececec;stroke:#000000;stroke-width:0.264583px;stroke-linecap:butt;stroke-linejoin:miter;stroke-opacity:1"
       inkscape:export-xdpi="96"
       inkscape:export-ydpi="96"
       inkscape:export-filename="C:\Users\jose zambrano\Desktop\Proyecto Game\Imagenes\perfilverderaro.png" />
    <path
       sodipodi:nodetypes="ccccc"
       inkscape:connector-curvature="0"
       id="path2093"
       d="m 65.551339,122.53723 c -2.67268,3.34085 -14.03164,4.00903 -14.03164,4.00903 -5.8851,-0.20209 -10.55472,1.19185 -14.4717,-1.85466 -2.76234,-8.36822 -0.74627,-12.03519 5.65181,-13.3797 12.02127,-0.20055 29.50361,-5.72361 22.85153,11.22533 z"
       style="display:inline;opacity:0.98;fill:#e6e6e6;stroke:#000000;stroke-width:0.264583px;stroke-linecap:butt;stroke-linejoin:miter;stroke-opacity:1"
       inkscape:export-xdpi="96"
       inkscape:export-ydpi="96"
       inkscape:export-filename="C:\Users\jose zambrano\Desktop\Proyecto Game\Imagenes\perfilverderaro.png" />
    <path
       sodipodi:nodetypes="czccsccccc"
       inkscape:connector-curvature="0"
       id="path2095"
       d="m 74.124249,157.23371 c -3.85094,-1.54914 -2.82413,-1.79465 -5.64002,-1.99109 -2.81589,-0.19644 -10.94983,2.35661 -10.94983,2.35661 l -2.97321,1.42217 c 0,0 7.63306,4.59105 10.1215,6.2967 1.80788,1.23916 17.97646,1.81636 19.48837,0.11546 6.47746,-3.47881 10.10807,-7.06939 10.07762,-7.07362 L 89.945849,157.5 c -1.24801,-0.54018 -8.45226,-1.87236 -10.79526,-2.09605 -2.72802,-0.47247 -5.02634,1.82976 -5.02634,1.82976 z"
       style="display:inline;opacity:0.99;fill:#000000;fill-opacity:0;stroke:#000000;stroke-width:0.264583px;stroke-linecap:butt;stroke-linejoin:miter;stroke-opacity:1"
       inkscape:export-xdpi="96"
       inkscape:export-ydpi="96"
       inkscape:export-filename="C:\Users\jose zambrano\Desktop\Proyecto Game\Imagenes\perfilverderaro.png" />
    <path
       sodipodi:nodetypes="ccccc"
       inkscape:connector-curvature="0"
       id="path2097"
       d="m 68.014529,162.74888 5.77985,0.0645 0.3362,-3.38551 -5.70811,-1.38904 z"
       style="display:inline;opacity:0.99;fill:#ffffff;stroke:#000000;stroke-width:0.264583px;stroke-linecap:butt;stroke-linejoin:miter;stroke-opacity:1"
       inkscape:export-xdpi="96"
       inkscape:export-ydpi="96"
       inkscape:export-filename="C:\Users\jose zambrano\Desktop\Proyecto Game\Imagenes\perfilverderaro.png" />
    <path
       sodipodi:nodetypes="cccc"
       inkscape:connector-curvature="0"
       id="path2099"
       d="m 62.679899,159.09652 0.74224,2.29252 -5.01055,-1.24801 z"
       style="display:inline;opacity:0.99;fill:#ffffff;stroke:#000000;stroke-width:0.264583px;stroke-linecap:butt;stroke-linejoin:miter;stroke-opacity:1"
       inkscape:export-xdpi="96"
       inkscape:export-ydpi="96"
       inkscape:export-filename="C:\Users\jose zambrano\Desktop\Proyecto Game\Imagenes\perfilverderaro.png" />
    <path
       sodipodi:nodetypes="ccccc"
       inkscape:connector-curvature="0"
       id="path2101"
       d="m 63.655549,161.56407 4.29579,1.07198 0.25681,-4.47598 -5.31019,0.90634 z"
       style="display:inline;opacity:0.99;fill:#ffffff;stroke:#000000;stroke-width:0.264583px;stroke-linecap:butt;stroke-linejoin:miter;stroke-opacity:1"
       inkscape:export-xdpi="96"
       inkscape:export-ydpi="96"
       inkscape:export-filename="C:\Users\jose zambrano\Desktop\Proyecto Game\Imagenes\perfilverderaro.png" />
    <path
       sodipodi:nodetypes="ccscc"
       inkscape:connector-curvature="0"
       id="path2103"
       d="m 74.422249,159.51261 c 1.60279,-0.91913 1.02759,-0.87635 4.81087,-1.20271 0,0 0.30066,4.71063 -0.0334,4.71063 -0.33407,0 -5.27858,-0.16704 -5.27858,-0.16704 z"
       style="display:inline;opacity:0.99;fill:#ffffff;stroke:#000000;stroke-width:0.264583px;stroke-linecap:butt;stroke-linejoin:miter;stroke-opacity:1"
       inkscape:export-xdpi="96"
       inkscape:export-ydpi="96"
       inkscape:export-filename="C:\Users\jose zambrano\Desktop\Proyecto Game\Imagenes\perfilverderaro.png" />
    <path
       sodipodi:nodetypes="ccccc"
       inkscape:connector-curvature="0"
       id="path2105"
       d="m 79.384229,158.28059 4.40363,0.13405 0.1159,3.85412 c -1.45105,0.16915 -2.81476,0.57754 -4.30755,0.62902 z"
       style="display:inline;opacity:0.99;fill:#ffffff;stroke:#000000;stroke-width:0.264583px;stroke-linecap:butt;stroke-linejoin:miter;stroke-opacity:1"
       inkscape:export-xdpi="96"
       inkscape:export-ydpi="96"
       inkscape:export-filename="C:\Users\jose zambrano\Desktop\Proyecto Game\Imagenes\perfilverderaro.png" />
    <path
       sodipodi:nodetypes="ccccc"
       inkscape:connector-curvature="0"
       id="path2107"
       d="m 83.978129,158.3197 3.45089,0.62973 0.12887,2.1847 -3.45493,1.06907 z"
       style="display:inline;opacity:0.99;fill:#ffffff;stroke:#000000;stroke-width:0.264583px;stroke-linecap:butt;stroke-linejoin:miter;stroke-opacity:1"
       inkscape:export-xdpi="96"
       inkscape:export-ydpi="96"
       inkscape:export-filename="C:\Users\jose zambrano\Desktop\Proyecto Game\Imagenes\perfilverderaro.png" />
    <path
       sodipodi:nodetypes="cccc"
       style="display:inline;opacity:0.99;fill:#ffffff;stroke:#000000;stroke-width:0.264583px;stroke-linecap:butt;stroke-linejoin:miter;stroke-opacity:1"
       d="m 87.655399,158.97694 0.0691,2.08859 3.70858,-1.6977 z"
       id="path2109"
       inkscape:connector-curvature="0"
       inkscape:export-xdpi="96"
       inkscape:export-ydpi="96"
       inkscape:export-filename="C:\Users\jose zambrano\Desktop\Proyecto Game\Imagenes\perfilverderaro.png" />
  </g>
</svg>
