<?xml version="1.0" encoding="UTF-8" standalone="no"?>
<svg
   xmlns:dc="http://purl.org/dc/elements/1.1/"
   xmlns:cc="http://creativecommons.org/ns#"
   xmlns:rdf="http://www.w3.org/1999/02/22-rdf-syntax-ns#"
   xmlns:svg="http://www.w3.org/2000/svg"
   xmlns="http://www.w3.org/2000/svg"
   xmlns:sodipodi="http://sodipodi.sourceforge.net/DTD/sodipodi-0.dtd"
   xmlns:inkscape="http://www.inkscape.org/namespaces/inkscape"
   width="179.7831mm"
   height="190.63211mm"
   viewBox="0 0 179.7831 190.63212"
   version="1.1"
   id="svg109"
   inkscape:version="1.0.1 (3bc2e813f5, 2020-09-07)"
   sodipodi:docname="imgproject.svg">
  <defs
     id="defs103" />
  <sodipodi:namedview
     id="base"
     pagecolor="#ffffff"
     bordercolor="#666666"
     borderopacity="1.0"
     inkscape:pageopacity="0.0"
     inkscape:pageshadow="2"
     inkscape:zoom="0.48724077"
     inkscape:cx="231.72418"
     inkscape:cy="620.25875"
     inkscape:document-units="mm"
     inkscape:current-layer="layer1"
     inkscape:document-rotation="0"
     showgrid="false"
     fit-margin-top="0"
     fit-margin-left="0"
     fit-margin-right="0"
     fit-margin-bottom="0" />
  <metadata
     id="metadata106">
    <rdf:RDF>
      <cc:Work
         rdf:about="">
        <dc:format>image/svg+xml</dc:format>
        <dc:type
           rdf:resource="http://purl.org/dc/dcmitype/StillImage" />
        <dc:title></dc:title>
      </cc:Work>
    </rdf:RDF>
  </metadata>
  <g
     inkscape:label="Capa 1"
     inkscape:groupmode="layer"
     id="layer1"
     transform="translate(14.882221,-23.380426)">
    <path
       sodipodi:nodetypes="cccccccccccccscccsccccc"
       inkscape:connector-curvature="0"
       id="path2061"
       d="m 12.062784,117.48485 c 1.738288,-2.95598 7.262146,-10.08687 8.985603,-15.56584 0,0 8.905271,-20.227329 19.366233,-22.519072 19.310684,-4.065012 34.390666,2.768262 50.957009,11.600386 7.518513,5.163925 3.270559,11.346166 9.378841,11.928226 0,0 15.67383,-1.47978 21.99725,4.62847 6.32341,6.10823 17.6116,18.62674 17.6116,18.62674 9.24271,16.72689 0.98072,29.25248 -4.51649,40.87084 -3.31651,6.89458 -5.81603,11.13492 -9.7662,16.09657 l -6.54452,13.5255 -2.73436,8.97699 8.96209,-2.55249 -5.35792,5.91055 c -1.85479,3.36694 -9.33898,12.21639 -13.91556,17.76005 -10.888683,13.18962 -12.596874,27.94821 -17.87599,30.04514 -4.942768,11.22593 -15.131611,20.33869 -26.785,20.79774 -14.920771,9.20221 -25.860409,8.01401 -41.444658,4.24792 -12.4684609,-3.56828 -27.2462612,-11.78899 -34.316538,-28.04594 -7.070296,-16.25698 -7.116839,-40.23048 -7.116839,-40.23048 l 4.514008,-18.12089 c 0,0 4.896413,-13.64043 4.736421,-15.2653 -0.159998,-1.62486 1.201528,-16.89077 3.3236268,-20.54914 C 6.2100018,135.60145 11.159496,129.8936 12.062784,117.48485 Z"
       style="display:inline;fill:none;fill-opacity:1;stroke:none;stroke-width:0.264584px;stroke-linecap:butt;stroke-linejoin:miter;stroke-opacity:1"
       inkscape:export-xdpi="96"
       inkscape:export-ydpi="96"
       inkscape:export-filename="C:\Users\jose zambrano\Desktop\Proyecto Game\Imagenes\perfilverderaro.png" />
    <path
       sodipodi:nodetypes="cccscccsc"
       inkscape:connector-curvature="0"
       id="path2067"
       d="m 52.891754,174.18123 c 0,0 -12.260878,2.88848 -18.338138,8.00071 -4.337426,8.58687 3.966122,16.68669 6.90744,18.52014 1.535418,0.7804 3.056277,1.06806 8.313592,0.36116 3.141759,-0.42244 9.179198,0.54176 9.380427,3.79399 -0.137989,1.61986 2.347014,1.10014 3.949823,0.53331 0.775455,-0.43326 3.892832,-4.57734 2.027531,-8.11194 -3.793204,-4.68342 -6.544803,-18.12531 -7.3112,-21.67885 -0.766399,-3.55356 -4.929475,-1.41852 -4.929475,-1.41852 z"
       style="display:inline;opacity:0.219;fill:none;fill-opacity:1;stroke:none;stroke-width:0.264999;stroke-linecap:butt;stroke-linejoin:miter;stroke-miterlimit:4;stroke-dasharray:none;stroke-opacity:1"
       inkscape:export-xdpi="96"
       inkscape:export-ydpi="96"
       inkscape:export-filename="C:\Users\jose zambrano\Desktop\Proyecto Game\Imagenes\perfilverderaro.png" />
    <path
       sodipodi:nodetypes="cccccccccccccccczczccccc"
       inkscape:connector-curvature="0"
       id="path2077"
       d="m -19.651566,194.60262 c -6.38868,12.63494 -6.37009,23.17764 -7.793732,37.07085 -0.08964,17.02747 3.177813,22.64105 10.091566,37.53986 11.2897462,11.94636 23.0568856,16.77826 38.347653,21.12878 21.78948,4.50907 46.774723,-2.15595 59.88818,-17.33735 8.242563,-8.90387 14.380238,-17.21972 19.481279,-26.90534 l 3.44491,-7.74286 -3.80077,0.71064 0.15305,-2.61267 1.15856,-3.61609 -2.413092,1.87811 c -7.356974,17.28071 -23.259453,37.43928 -34.737455,31.77247 0.416011,-6.93113 3.361302,-14.48533 3.106317,-20.58196 -7.250628,5.33104 -5.098611,7.62563 -13.336724,19.23327 -18.783054,14.38406 -29.816757,14.99423 -39.203943,6.10957 0,0 -1.674891,-3.68342 -1.705325,-12.85626 -5.0399573,7.02605 -14.7960753,6.22792 -18.1513098,2.77097 -3.3552464,-3.45696 -8.4887332,-24.74288 -3.9240154,-46.02562 -0.131535,-2.03747 0.114464,-2.4203 -1.4210858,-2.4683 -1.535537,-0.0479 -3.51617,5.31002 -3.51617,5.31002 -12.236805,7.89993 -1.946401,-13.19349 4.3738158,-37.23008 l -0.195408,-10.96258 -4.8605778,12.55578 z"
       style="display:inline;opacity:1;fill:#ffffff;fill-opacity:1;stroke:none;stroke-width:0.264584px;stroke-linecap:butt;stroke-linejoin:miter;stroke-opacity:1"
       inkscape:export-xdpi="96"
       inkscape:export-ydpi="96"
       inkscape:export-filename="C:\Users\jose zambrano\Desktop\Proyecto Game\Imagenes\perfilverderaro.png" />
    <path
       sodipodi:nodetypes="cccczcccccsccccczzczccczccccccccccczcczzczccczczccccc"
       inkscape:connector-curvature="0"
       id="path2075"
       d="m -4.2422298,141.4378 0.2626086,-7.65089 2.8137747,-8.43867 3.8477012,-5.51689 C 0.8140593,117.26532 1.1575051,108.63049 4.2813132,100.67485 7.405119,92.719222 17.7593,82.271973 17.7593,82.271973 c 0,0 6.668361,-9.616652 -8.8796588,8.95093 C 20.26706,70.645824 39.515428,71.632891 39.515428,71.632891 l 2.441625,-5.54076 c 0,0 -0.205173,-10.202053 5.912875,-16.861913 6.943853,-7.245956 10.537986,-10.454774 19.944712,-8.525718 7.571102,1.552634 15.799483,13.041957 15.799483,13.041957 l -8.596909,-6.978176 c 0,0 -9.040772,-5.504226 -14.919394,-2.822214 -9.057561,5.434823 -12.200661,11.970098 -9.038946,15.024233 10.647262,-4.245168 22.218641,-2.523666 22.218641,-2.523666 0,0 8.445022,-3.003839 13.906796,0.22961 5.461763,3.233426 10.103708,-0.615219 21.606549,5.361002 11.50288,5.976199 14.33416,12.260742 14.33416,12.260742 0,0 7.8365,4.400175 15.89686,9.330503 8.0603,4.930311 10.43646,21.814989 10.43646,21.814989 l 6.11963,11.30251 5.99504,8.32804 c 0,0 2.82739,12.53148 2.05315,19.56931 -0.77428,7.03786 -10.53924,20.72475 -10.53924,20.72475 l -0.1861,4.51944 c 0,0 -2.62287,5.31844 -6.62407,7.92964 2.3751,4.12893 1.70542,4.50151 1.70542,4.50151 l -10.61141,8.02764 -5.92262,6.9351 -4.79477,7.70748 -6.25145,4.02282 -8.17747,15.65453 -8.97289,8.64457 -1.68743,-1.32724 c 0,0 1.02306,0.49239 5.4387,-6.50883 4.41564,-7.00129 9.83774,-19.73024 9.83774,-19.73024 l 4.38583,-12.71524 c 0,0 3.28898,-14.20819 6.19477,-18.89389 2.90578,-4.68572 6.33563,-5.51344 8.11954,-9.25596 1.78396,-3.7425 0.26372,-12.65971 0.26372,-12.65971 0,0 1.00023,-15.01281 -1.53102,-21.63427 -2.53126,-6.62144 -15.00439,-16.27914 -15.00439,-16.27914 0,0 -15.75055,-13.63253 -24.187215,-10.29267 0.07721,-8.087686 -13.631022,-11.563029 -13.631022,-11.563029 0,0 -20.356894,-10.162217 -27.639249,-8.311047 -7.282342,1.851171 -17.688599,7.523409 -17.688599,7.523409 0,0 -9.223796,10.464377 -10.834934,15.397257 -1.611136,4.93289 -4.129051,14.00302 -4.129051,14.00302 l -19.3678029,23.82805 -5.5819094,11.45198 0.9034119,-6.68073 z"
       style="display:inline;opacity:1;fill:#ffffff;fill-opacity:1;stroke:none;stroke-width:0.264584px;stroke-linecap:butt;stroke-linejoin:miter;stroke-opacity:1"
       inkscape:export-xdpi="96"
       inkscape:export-ydpi="96"
       inkscape:export-filename="C:\Users\jose zambrano\Desktop\Proyecto Game\Imagenes\perfilverderaro.png" />
    <path
       sodipodi:nodetypes="cccscc"
       inkscape:connector-curvature="0"
       id="path2079"
       d="m 16.896018,242.20003 c -3.213163,1.69532 -5.055966,4.29978 -7.2102749,7.10388 l 3.3927439,4.5458 c 0,0 6.19859,0.56769 6.908905,-0.76424 0.710309,-1.3319 1.544534,-7.3875 1.544534,-7.3875 z"
       style="display:inline;opacity:1;fill:#241c22;stroke:none;stroke-width:0.264584px;stroke-linecap:butt;stroke-linejoin:miter;stroke-opacity:1"
       inkscape:export-xdpi="96"
       inkscape:export-ydpi="96"
       inkscape:export-filename="C:\Users\jose zambrano\Desktop\Proyecto Game\Imagenes\perfilverderaro.png" />
    <path
       sodipodi:nodetypes="ccccsc"
       inkscape:connector-curvature="0"
       id="path2081"
       d="m 36.287824,201.9329 -9.944976,10.07342 C 4.0626674,201.84873 7.1914509,205.99264 -8.9578692,211.62569 l 5.695794,-11.41266 c 5.7523562,-2.66802 9.5917483,-3.44491 15.3383962,-2.75062 10.271729,1.24103 18.003361,3.77858 24.211503,4.47049 z"
       style="display:inline;opacity:1;fill:#ffffff;fill-opacity:1;stroke:none;stroke-width:0.264584px;stroke-linecap:butt;stroke-linejoin:miter;stroke-opacity:1"
       inkscape:export-xdpi="96"
       inkscape:export-ydpi="96"
       inkscape:export-filename="C:\Users\jose zambrano\Desktop\Proyecto Game\Imagenes\perfilverderaro.png" />
    <path
       sodipodi:nodetypes="ccccc"
       inkscape:connector-curvature="0"
       id="path2083"
       d="m 43.562952,220.31952 c 13.64611,10.73211 25.154187,21.261 29.510378,28.79161 1.266644,-7.41879 0.73944,-12.06169 -0.901908,-17.78157 -3.772431,-5.44253 -17.168452,-9.7492 -25.979568,-24.87665 -2.099308,7.14171 -1.670697,5.7043 -2.628902,13.86661 z"
       style="display:inline;opacity:1;fill:#ffffff;fill-opacity:1;stroke:none;stroke-width:0.264999;stroke-linecap:butt;stroke-linejoin:miter;stroke-miterlimit:4;stroke-dasharray:none;stroke-opacity:1"
       inkscape:export-xdpi="96"
       inkscape:export-ydpi="96"
       inkscape:export-filename="C:\Users\jose zambrano\Desktop\Proyecto Game\Imagenes\perfilverderaro.png" />
    <path
       sodipodi:nodetypes="ccccscsccsccccsccc"
       inkscape:connector-curvature="0"
       id="path2089"
       d="m 128.82714,192.32533 -3.86764,5.43749 c -4.28673,-2.73936 -4.71563,-3.01705 -7.53567,-4.01755 l -9.53124,10.1594 c 0,0 -0.33213,-0.0892 -0.93813,-0.26117 -6.28806,-1.78328 -42.064491,-12.4554 -42.271765,-24.48116 0,0 -0.05484,-12.65556 1.251009,-15.10428 1.305896,-2.44871 -7.77814,-4.81386 -7.77814,-4.81386 -6.043555,7.44947 -9.299539,11.08382 -15.207714,11.72951 C 41.440714,170.17021 1.6987138,160.26775 3.4231608,148.45014 4.9817505,137.76918 5.897634,134.55786 5.897634,134.55786 l 5.414662,-8.47126 c 7.758654,1.67659 27.953993,4.52871 49.316716,26.2511 l 10.462011,5.33574 c 0,0 3.817882,0.10014 13.852727,3.51469 0.280883,0.0957 0.569226,0.19649 0.86445,0.30228 16.76889,4.60116 35.94146,15.15383 40.18617,27.30629 z"
       style="display:inline;opacity:0.98;fill:#ffffff;stroke:none;stroke-width:0.264584px;stroke-linecap:butt;stroke-linejoin:miter;stroke-opacity:1;fill-opacity:1"
       inkscape:export-xdpi="96"
       inkscape:export-ydpi="96"
       inkscape:export-filename="C:\Users\jose zambrano\Desktop\Proyecto Game\Imagenes\perfilverderaro.png" />
    <path
       sodipodi:nodetypes="cscccc"
       inkscape:connector-curvature="0"
       id="path2091"
       d="m 68.614609,169.84185 c -1.016133,4.63365 -2.169744,10.9525 1.572995,13.99703 10.481331,8.52598 31.197146,18.3014 37.558666,16.588 3.58408,-1.58116 11.4765,-13.83363 11.16511,-16.86291 -1.79062,-4.46006 -12.10677,-9.36702 -16.10265,-11.54161 -12.173894,-6.37867 -32.357353,-18.24309 -34.194121,-2.18051 z"
       style="display:inline;opacity:0.98;fill:#6094d7;stroke:none;stroke-width:0.264584px;stroke-linecap:butt;stroke-linejoin:miter;stroke-opacity:1;fill-opacity:0.98039216"
       inkscape:export-xdpi="96"
       inkscape:export-ydpi="96"
       inkscape:export-filename="C:\Users\jose zambrano\Desktop\Proyecto Game\Imagenes\perfilverderaro.png" />
    <path
       sodipodi:nodetypes="ccccc"
       inkscape:connector-curvature="0"
       id="path2093"
       d="m 47.314484,166.22736 c -6.279144,2.70029 -22.794715,-4.89515 -22.794715,-4.89515 -8.14461,-4.70804 -15.7754385,-6.25286 -19.0073262,-13.49098 2.3962203,-13.87145 7.9948532,-17.52491 18.0252222,-14.61131 17.097743,8.75239 45.895183,14.10699 23.776819,32.99744 z"
       style="display:inline;opacity:0.98;fill:#6094d7;stroke:none;stroke-width:0.264584px;stroke-linecap:butt;stroke-linejoin:miter;stroke-opacity:1;fill-opacity:0.98039216"
       inkscape:export-xdpi="96"
       inkscape:export-ydpi="96"
       inkscape:export-filename="C:\Users\jose zambrano\Desktop\Proyecto Game\Imagenes\perfilverderaro.png" />
    <path
       sodipodi:nodetypes="czccsccccc"
       inkscape:connector-curvature="0"
       id="path2095"
       d="m 33.318642,221.57655 c -4.264369,-5.07789 -2.632273,-4.65221 -6.454309,-7.04548 -3.822037,-2.39329 -17.2079988,-4.90805 -17.2079988,-4.90805 l -5.2605365,-0.23005 c 0,0 7.3095943,12.20817 9.5355303,16.48264 1.617176,3.10542 23.97695,16.07113 27.386942,14.80999 11.746639,-0.0351 19.563947,-2.36744 19.5242,-2.39628 l -5.419495,-4.44607 c -1.353326,-1.69939 -10.508114,-8.99179 -13.643011,-11.06805 -3.490669,-2.71633 -8.461322,-1.19865 -8.461322,-1.19865 z"
       style="display:inline;opacity:0.99;fill:#000000;fill-opacity:0;stroke:none;stroke-width:0.264584px;stroke-linecap:butt;stroke-linejoin:miter;stroke-opacity:1"
       inkscape:export-xdpi="96"
       inkscape:export-ydpi="96"
       inkscape:export-filename="C:\Users\jose zambrano\Desktop\Proyecto Game\Imagenes\perfilverderaro.png" />
    <path
       sodipodi:nodetypes="ccccc"
       inkscape:connector-curvature="0"
       id="path2097"
       d="m 20.559682,224.75838 8.099661,4.43499 3.018862,-4.5193 -7.002862,-6.24807 z"
       style="display:inline;opacity:0.99;fill:#ffffff;stroke:none;stroke-width:0.264584px;stroke-linecap:butt;stroke-linejoin:miter;stroke-opacity:1"
       inkscape:export-xdpi="96"
       inkscape:export-ydpi="96"
       inkscape:export-filename="C:\Users\jose zambrano\Desktop\Proyecto Game\Imagenes\perfilverderaro.png" />
    <path
       sodipodi:nodetypes="cccc"
       inkscape:connector-curvature="0"
       id="path2099"
       d="m 15.784683,215.60079 -0.676926,3.78926 -6.1254874,-5.52501 z"
       style="display:inline;opacity:0.99;fill:#ffffff;stroke:none;stroke-width:0.264584px;stroke-linecap:butt;stroke-linejoin:miter;stroke-opacity:1"
       inkscape:export-xdpi="96"
       inkscape:export-ydpi="96"
       inkscape:export-filename="C:\Users\jose zambrano\Desktop\Proyecto Game\Imagenes\perfilverderaro.png" />
    <path
       sodipodi:nodetypes="ccccc"
       inkscape:connector-curvature="0"
       id="path2101"
       d="m 15.305237,219.81218 5.250177,4.73966 3.726655,-6.11602 -8.167343,-2.71357 z"
       style="display:inline;opacity:0.99;fill:#ffffff;stroke:none;stroke-width:0.264584px;stroke-linecap:butt;stroke-linejoin:miter;stroke-opacity:1"
       inkscape:export-xdpi="96"
       inkscape:export-ydpi="96"
       inkscape:export-filename="C:\Users\jose zambrano\Desktop\Proyecto Game\Imagenes\perfilverderaro.png" />
    <path
       sodipodi:nodetypes="ccscc"
       inkscape:connector-curvature="0"
       id="path2103"
       d="m 32.025686,225.01272 c 2.950449,-0.0909 2.107403,-0.46291 7.686209,1.92055 0,0 -3.117146,6.86576 -3.588088,6.61468 -0.470955,-0.25109 -7.315914,-4.20277 -7.315914,-4.20277 z"
       style="display:inline;opacity:0.99;fill:#ffffff;stroke:none;stroke-width:0.264584px;stroke-linecap:butt;stroke-linejoin:miter;stroke-opacity:1"
       inkscape:export-xdpi="96"
       inkscape:export-ydpi="96"
       inkscape:export-filename="C:\Users\jose zambrano\Desktop\Proyecto Game\Imagenes\perfilverderaro.png" />
    <path
       sodipodi:nodetypes="ccccc"
       inkscape:connector-curvature="0"
       id="path2105"
       d="m 39.946954,227.00551 6.107254,3.49866 -2.73377,5.51964 c -2.172769,-0.85217 -4.402248,-1.30149 -6.545409,-2.35087 z"
       style="display:inline;opacity:0.99;fill:#ffffff;stroke:none;stroke-width:0.264584px;stroke-linecap:butt;stroke-linejoin:miter;stroke-opacity:1"
       inkscape:export-xdpi="96"
       inkscape:export-ydpi="96"
       inkscape:export-filename="C:\Users\jose zambrano\Desktop\Proyecto Game\Imagenes\perfilverderaro.png" />
    <path
       sodipodi:nodetypes="ccccc"
       inkscape:connector-curvature="0"
       id="path2107"
       d="m 46.393809,230.51336 4.39152,3.48129 -1.460574,3.17626 -5.674212,-1.08979 z"
       style="display:inline;opacity:0.99;fill:#ffffff;stroke:none;stroke-width:0.264584px;stroke-linecap:butt;stroke-linejoin:miter;stroke-opacity:1"
       inkscape:export-xdpi="96"
       inkscape:export-ydpi="96"
       inkscape:export-filename="C:\Users\jose zambrano\Desktop\Proyecto Game\Imagenes\perfilverderaro.png" />
    <path
       sodipodi:nodetypes="cccc"
       style="display:inline;opacity:0.99;fill:#ffffff;stroke:none;stroke-width:0.264584px;stroke-linecap:butt;stroke-linejoin:miter;stroke-opacity:1"
       d="m 51.08379,234.20357 -1.47259,2.99587 6.504341,0.39436 z"
       id="path2109"
       inkscape:connector-curvature="0"
       inkscape:export-xdpi="96"
       inkscape:export-ydpi="96"
       inkscape:export-filename="C:\Users\jose zambrano\Desktop\Proyecto Game\Imagenes\perfilverderaro.png" />
  </g>
</svg>
