<?xml version="1.0" encoding="UTF-8" standalone="no"?>
<svg
   xmlns:dc="http://purl.org/dc/elements/1.1/"
   xmlns:cc="http://creativecommons.org/ns#"
   xmlns:rdf="http://www.w3.org/1999/02/22-rdf-syntax-ns#"
   xmlns:svg="http://www.w3.org/2000/svg"
   xmlns="http://www.w3.org/2000/svg"
   xmlns:sodipodi="http://sodipodi.sourceforge.net/DTD/sodipodi-0.dtd"
   xmlns:inkscape="http://www.inkscape.org/namespaces/inkscape"
   width="535.104"
   height="535.10541"
   viewBox="0 0 535.104 535.10541"
   version="1.1"
   id="svg2042"
   sodipodi:docname="logo2.svg"
   inkscape:version="1.0.1 (3bc2e813f5, 2020-09-07)">
  <style
     id="style3064" />
  <metadata
     id="metadata2046">
    <rdf:RDF>
      <cc:Work
         rdf:about="">
        <dc:format>image/svg+xml</dc:format>
        <dc:type
           rdf:resource="http://purl.org/dc/dcmitype/StillImage" />
        <dc:title></dc:title>
      </cc:Work>
    </rdf:RDF>
  </metadata>
  <sodipodi:namedview
     pagecolor="#ffffff"
     bordercolor="#666666"
     borderopacity="1"
     objecttolerance="10"
     gridtolerance="10"
     guidetolerance="10"
     inkscape:pageopacity="0"
     inkscape:pageshadow="2"
     inkscape:window-width="640"
     inkscape:window-height="480"
     id="namedview2044"
     showgrid="false"
     inkscape:zoom="0.49814815"
     inkscape:cx="267.48346"
     inkscape:cy="308.35857"
     inkscape:current-layer="layer3"
     inkscape:document-rotation="0"
     fit-margin-top="0"
     fit-margin-left="0"
     fit-margin-right="0"
     fit-margin-bottom="0" />
  <defs
     id="defs7">
    <style
       id="style2">.a{clip-path:url(#b);}.b{fill:#d4e3f9;}.c{fill:#f9583a;}.d{fill:#fff;}.e{stroke:#000;stroke-miterlimit:10;stroke-width:2px;}.f{font-size:34px;font-family:SegoeUI, Segoe UI;}</style>
    <clipPath
       id="b">
      <rect
         width="1920"
         height="1080"
         id="rect4"
         x="0"
         y="0" />
    </clipPath>
  </defs>
  <g
     inkscape:groupmode="layer"
     id="layer3"
     inkscape:label="logo2"
     style="display:inline"
     transform="translate(-692.51654,-284.51656)">
    <g
       transform="translate(-47.489,73.651)"
       id="g2039">
      <g
         transform="translate(685.451,156.311)"
         id="g1975">
        <circle
           class="b"
           cx="267.552"
           cy="267.552"
           r="267.552"
           transform="rotate(-76.648,329.33857,260.32)"
           id="circle1957" />
        <path
           class="c"
           d="m 712.02,295.135 c 44.846,84.9 133.983,142.8 236.685,142.8 102.702,0 191.836,-57.9 236.685,-142.8 z"
           transform="translate(-626.497,151.725)"
           id="path1959" />
        <g
           transform="translate(228.529,484.623)"
           id="g1969">
          <path
             class="d"
             d="m 765.041,306.867 16.487,41.157 16.493,-41.157 h 8.627 v 50.446 H 800 v -19.645 l 0.628,-21.206 -16.564,40.851 h -5.093 l -16.526,-40.748 0.66,21.1 v 19.645 h -6.653 v -50.443 z"
             transform="translate(-756.447,-306.867)"
             id="path1961" />
          <path
             class="d"
             d="m 804.2,333.992 h -21.855 v 17.881 h 25.391 v 5.44 h -32.044 v -50.446 h 31.7 v 5.475 h -25.047 v 16.21 H 804.2 Z"
             transform="translate(-713.745,-306.867)"
             id="path1963" />
          <path
             class="d"
             d="M 826.992,357.313 H 820.3 l -25.391,-38.878 v 38.878 h -6.689 v -50.446 h 6.689 l 25.461,39.045 v -39.045 h 6.621 z"
             transform="translate(-685.946,-306.867)"
             id="path1965" />
          <path
             class="d"
             d="m 840.14,306.867 v 34.159 a 17.436,17.436 0 0 1 -1.49,7.448 15.236,15.236 0 0 1 -4,5.3 16.878,16.878 0 0 1 -5.839,3.171 22.974,22.974 0 0 1 -7,1.056 23.519,23.519 0 0 1 -7.168,-1.056 16.133,16.133 0 0 1 -5.768,-3.171 14.715,14.715 0 0 1 -3.846,-5.3 18.315,18.315 0 0 1 -1.4,-7.448 v -34.159 h 6.571 v 34.159 a 13.945,13.945 0 0 0 0.85,5.112 9.679,9.679 0 0 0 2.372,3.6 9.494,9.494 0 0 0 3.656,2.134 15.158,15.158 0 0 0 4.725,0.692 15.49,15.49 0 0 0 4.783,-0.692 9.276,9.276 0 0 0 6.029,-5.736 14.244,14.244 0 0 0 0.83,-5.112 v -34.157 z"
             transform="translate(-651.771,-306.867)"
             id="path1967" />
        </g>
        <g
           transform="translate(106.121,456.938)"
           id="g1973">
          <path
             class="d"
             d="m 1149.315,301.723 h -3.924 a 1.729,1.729 0 0 1 0,-3.457 h 3.924 a 1.729,1.729 0 0 1 0,3.457 z m -13.722,0 h -3.914 a 1.729,1.729 0 1 1 0,-3.457 h 3.914 a 1.729,1.729 0 1 1 0,3.457 z m -13.712,0 h -3.924 a 1.729,1.729 0 0 1 0,-3.457 h 3.924 a 1.729,1.729 0 0 1 0,3.457 z m -13.719,0 h -3.921 a 1.729,1.729 0 0 1 0,-3.457 h 3.921 a 1.729,1.729 0 0 1 0,3.457 z m -13.719,0 h -3.921 a 1.729,1.729 0 0 1 0,-3.457 h 3.921 a 1.729,1.729 0 0 1 0,3.457 z m -13.719,0 h -3.917 a 1.729,1.729 0 0 1 0,-3.457 h 3.917 a 1.729,1.729 0 1 1 0,3.457 z m -13.716,0 h -3.921 a 1.729,1.729 0 0 1 0,-3.457 h 3.921 a 1.729,1.729 0 0 1 0,3.457 z m -13.719,0 h -3.921 a 1.729,1.729 0 0 1 0,-3.457 h 3.921 a 1.729,1.729 0 0 1 0,3.457 z m -13.719,0 h -3.917 a 1.729,1.729 0 1 1 0,-3.457 h 3.917 a 1.729,1.729 0 0 1 0,3.457 z m -13.716,0 h -3.921 a 1.729,1.729 0 0 1 0,-3.457 h 3.921 a 1.729,1.729 0 0 1 0,3.457 z m -13.716,0 h -3.924 a 1.729,1.729 0 0 1 0,-3.457 h 3.924 a 1.729,1.729 0 0 1 0,3.457 z m -13.722,0 H 994.5 a 1.729,1.729 0 0 1 0,-3.457 h 3.917 a 1.729,1.729 0 0 1 0,3.457 z m -13.716,0 h -3.92 a 1.729,1.729 0 0 1 0,-3.457 h 3.92 a 1.729,1.729 0 1 1 0,3.457 z m -13.716,0 h -3.921 a 1.729,1.729 0 0 1 0,-3.457 h 3.921 a 1.729,1.729 0 0 1 0,3.457 z m -13.719,0 h -3.921 a 1.729,1.729 0 0 1 0,-3.457 h 3.921 a 1.729,1.729 0 0 1 0,3.457 z m -13.719,0 h -3.916 a 1.729,1.729 0 1 1 0,-3.457 h 3.917 a 1.729,1.729 0 0 1 0,3.457 z m -13.716,0 h -3.921 a 1.729,1.729 0 0 1 0,-3.457 h 3.921 a 1.729,1.729 0 0 1 0,3.457 z m -13.719,0 h -3.921 a 1.729,1.729 0 0 1 0,-3.457 h 3.921 a 1.729,1.729 0 0 1 0,3.457 z m -13.719,0 h -3.921 a 1.729,1.729 0 0 1 0,-3.457 h 3.921 a 1.729,1.729 0 0 1 0,3.457 z m -13.719,0 h -3.918 a 1.729,1.729 0 0 1 0,-3.457 h 3.918 a 1.729,1.729 0 1 1 0,3.457 z m -13.716,0 h -3.921 a 1.729,1.729 0 0 1 0,-3.457 h 3.921 a 1.729,1.729 0 0 1 0,3.457 z m -13.719,0 h -3.917 a 1.729,1.729 0 0 1 0,-3.457 h 3.917 a 1.729,1.729 0 0 1 0,3.457 z m -13.716,0 H 843.6 a 1.729,1.729 0 0 1 0,-3.457 h 3.924 a 1.729,1.729 0 0 1 0,3.457 z m -13.719,0 h -3.917 a 1.729,1.729 0 0 1 0,-3.457 h 3.917 a 1.729,1.729 0 0 1 0,3.457 z m -13.716,0 h -3.917 a 1.729,1.729 0 0 1 0,-3.457 h 3.921 a 1.729,1.729 0 0 1 0,3.457 z m -13.719,0 h -3.92 a 1.729,1.729 0 0 1 0,-3.457 h 3.92 a 1.729,1.729 0 0 1 0,3.457 z m -13.719,0 h -3.917 a 1.729,1.729 0 1 1 0,-3.457 h 3.917 a 1.729,1.729 0 0 1 0,3.457 z m -13.716,0 h -3.92 a 1.729,1.729 0 0 1 0,-3.457 h 3.92 a 1.729,1.729 0 1 1 0,3.457 z m -13.719,0 H 761.3 a 1.729,1.729 0 0 1 0,-3.457 h 3.921 a 1.729,1.729 0 0 1 0,3.457 z m -13.719,0 h -3.92 a 1.729,1.729 0 0 1 0,-3.457 h 3.92 a 1.729,1.729 0 0 1 0,3.457 z m -13.719,0 h -3.917 a 1.729,1.729 0 0 1 0,-3.457 h 3.917 a 1.729,1.729 0 1 1 0,3.457 z m -13.716,0 h -3.92 a 1.729,1.729 0 0 1 0,-3.457 h 3.92 a 1.729,1.729 0 1 1 0,3.457 z"
             transform="translate(-718.419,-298.266)"
             id="path1971" />
        </g>
      </g>
      <g
         transform="translate(785.23,324.489)"
         id="g2005">
        <g
           transform="translate(118.397)"
           id="g1987">
          <path
             class="e"
             d="m 753.231,208.658 h 5.6 v 38.691 h 18.541 v 4.7 h -24.141 z"
             transform="translate(-753.231,-208.336)"
             id="path1977" />
          <path
             class="e"
             d="m 771.948,238.4 -4.507,13.645 h -5.794 l 14.743,-43.387 h 6.76 l 14.8,43.387 h -5.98 L 787.335,238.4 Z m 14.227,-4.378 -4.249,-12.489 c -0.966,-2.833 -1.61,-5.408 -2.253,-7.918 h -0.129 c -0.644,2.575 -1.352,5.215 -2.189,7.854 l -4.249,12.554 z"
             transform="translate(-734.555,-208.336)"
             id="path1979" />
          <path
             class="e"
             d="m 816.507,232.993 c -0.322,-6.052 -0.708,-13.326 -0.644,-18.734 h -0.19 c -1.484,5.086 -3.283,10.494 -5.472,16.481 l -7.661,21.051 h -4.249 l -7.017,-20.665 c -2.06,-6.116 -3.8,-11.717 -5.021,-16.867 h -0.129 c -0.129,5.408 -0.451,12.682 -0.837,19.185 l -1.159,18.6 h -5.344 l 3.026,-43.387 h 7.146 l 7.4,20.987 c 1.8,5.343 3.283,10.107 4.378,14.611 h 0.193 c 1.094,-4.374 2.639,-9.138 4.571,-14.611 l 7.725,-20.987 h 7.146 l 2.7,43.387 H 817.6 Z"
             transform="translate(-696.53,-208.336)"
             id="path1981" />
          <path
             class="e"
             d="m 804.3,238.4 -4.5,13.645 H 794 l 14.739,-43.387 h 6.76 l 14.807,43.387 h -5.987 L 819.686,238.4 Z m 14.231,-4.378 -4.252,-12.489 c -0.966,-2.833 -1.61,-5.408 -2.253,-7.918 H 811.9 c -0.644,2.575 -1.348,5.215 -2.189,7.854 l -4.246,12.554 z"
             transform="translate(-662.765,-208.336)"
             id="path1983" />
          <path
             class="e"
             d="m 807.26,209.459 a 58.3,58.3 0 0 1 10.748,-0.9 c 5.987,0 9.85,1.094 12.554,3.541 a 10.807,10.807 0 0 1 3.412,8.24 c 0,5.73 -3.605,9.528 -8.176,11.073 v 0.193 c 3.348,1.159 5.344,4.249 6.374,8.755 1.416,6.048 2.446,10.236 3.348,11.907 h -5.794 c -0.708,-1.223 -1.674,-4.957 -2.9,-10.365 -1.287,-5.984 -3.6,-8.237 -8.691,-8.43 h -5.279 v 18.8 h -5.6 z m 5.6,19.764 h 5.729 c 5.987,0 9.785,-3.283 9.785,-8.24 0,-5.6 -4.056,-8.047 -9.979,-8.112 a 23.037,23.037 0 0 0 -5.536,0.515 z"
             transform="translate(-633.347,-208.558)"
             id="path1985" />
        </g>
        <g
           transform="translate(0,54.026)"
           id="g2003">
          <path
             d="m 803.436,319.06 q -18.425,19.04 -44.462,19.04 -18.656,0 -30.592,-11.7 -11.936,-11.7 -11.933,-30.045 a 76.486,76.486 0 0 1 31.21,-61.1 q 13.959,-9.874 27.406,-9.872 11.265,0 18.383,6.763 7.118,6.763 7.114,17.569 a 36.852,36.852 0 0 1 -8.591,24.37 q -8.59,10.3 -20.1,10.3 a 15.435,15.435 0 0 1 -9.95,-3.109 9.791,9.791 0 0 1 -3.885,-8.005 11.162,11.162 0 0 1 3.344,-7.774 q 2.481,4.587 6.84,4.587 6.214,0 11.543,-7.774 a 29.515,29.515 0 0 0 5.324,-17.025 q 0,-6.451 -2.994,-10.262 a 9.625,9.625 0 0 0 -7.967,-3.808 q -7.233,0 -15.431,9.016 -8.198,9.016 -13.679,23.169 a 74.554,74.554 0 0 0 -5.479,26.9 q 0,16.242 9.213,26.662 a 29.911,29.911 0 0 0 23.437,10.416 31.9,31.9 0 0 0 16.249,-4.178 q 7.223,-4.181 15,-13.078 z"
             transform="translate(-716.449,-225.233)"
             id="path1989" />
          <path
             d="m 802.772,288.172 q -19.511,19.12 -30.081,19.12 a 9.964,9.964 0 0 1 -8.009,-4 15.177,15.177 0 0 1 -3.267,-9.911 q 0,-10.96 11.736,-29.385 a 43.251,43.251 0 0 1 -12.586,4.12 q -5.06,9.328 -15.859,20.057 h -1.79 v -7 a 101.1,101.1 0 0 0 10.957,-13.526 q -6.682,-2.955 -6.679,-8.784 0,-5.982 4.078,-12.785 4.078,-6.803 11.234,-6.8 6.06,0 6.061,6.219 0,4.9 -3.5,13.992 12.9,-1.4 22.548,-19.745 l 7.069,-0.312 -7.229,19.9 q -4.51,12.592 -5.83,17.141 a 29.383,29.383 0 0 0 -1.323,8.047 8.267,8.267 0 0 0 1.516,5.208 4.919,4.919 0 0 0 4.082,1.941 8.867,8.867 0 0 0 5.366,-1.9 q 2.564,-1.9 11.5,-10.532 z"
             transform="translate(-657.719,-194.422)"
             id="path1991" />
          <path
             d="m 800.293,309.553 q -18.189,19.12 -27.206,19.12 -4.973,0 -8.395,-5.089 -3.422,-5.089 -3.422,-12.784 0,-16.556 11.2,-45.863 l 19.745,-4.12 h 0.934 l -7.774,24.332 q -4.819,15.079 -4.819,21.531 a 7.093,7.093 0 0 0 1.123,4.162 3.37,3.37 0 0 0 2.842,1.59 10.432,10.432 0 0 0 6.1,-2.215 q 3.066,-2.216 9.676,-9.6 z m -1.552,-79.133 q 0,18.652 -13.764,18.653 a 17.022,17.022 0 0 1 -11.424,-4.04 56.465,56.465 0 0 0 7,-15.393 q 6.137,3.81 9.872,3.808 a 13.967,13.967 0 0 0 8.316,-3.028 z"
             transform="translate(-616.996,-215.803)"
             id="path1993" />
          <path
             d="m 843.736,288.172 a 26.033,26.033 0 0 1 -7.7,4.935 17.66,17.66 0 0 1 -5.906,1.439 q -5.6,0 -11.115,-4.352 -11.193,16.943 -25.651,16.944 a 18.058,18.058 0 0 1 -14.614,-6.763 q -5.6,-6.76 -5.6,-17.955 a 41.7,41.7 0 0 1 12.592,-30.431 40.866,40.866 0 0 1 30.081,-12.711 q 6.61,0 9.682,1.436 c 2.044,0.962 3.3,2.086 3.769,3.383 a 14.618,14.618 0 0 1 0.7,4.9 q 0,14.538 -7.935,35.681 a 12.194,12.194 0 0 0 8.321,3.653 q 5.209,0 13.371,-9.093 z m -25.655,-43.455 a 9.394,9.394 0 0 0 -3.338,-0.467 q -10.115,0 -15.821,10.574 -5.706,10.574 -5.714,24.718 0,7.851 2.485,12.206 2.485,4.355 6.92,4.352 5.514,0 11.968,-10.185 -7.306,-9.169 -7.3,-19.745 -0.002,-12.437 10.8,-21.453 z"
             transform="translate(-590.632,-194.422)"
             id="path1995" />
          <path
             d="m 847.052,319.092 q -10.574,9.715 -18.541,14.343 -7.967,4.628 -15.2,4.622 a 16.25,16.25 0 0 1 -13.41,-6.451 q -5.094,-6.451 -5.093,-17.337 0,-16.32 7.079,-39.177 a 248.843,248.843 0 0 1 17.176,-42.132 l 19.745,-7.307 a 4.988,4.988 0 0 1 1.4,-0.312 q 2.25,0 3.692,3.306 a 22.754,22.754 0 0 1 1.436,8.9 68.721,68.721 0 0 1 -7.307,30.7 q -7.305,14.847 -22.854,31.716 -0.618,8.083 -0.621,11.115 0,6.764 2.488,10.729 a 7.522,7.522 0 0 0 6.608,3.966 16.751,16.751 0 0 0 8.939,-3.032 q 4.742,-3.032 14.459,-12.592 z m -29.775,-30.4 a 94.921,94.921 0 0 0 16.017,-24.6 q 6.132,-13.621 6.138,-23.43 a 10.685,10.685 0 0 0 -0.853,-4.632 c -0.573,-1.169 -1.3,-1.751 -2.176,-1.751 q -2.882,0 -8.356,14.324 -5.474,14.324 -10.77,40.097 z"
             transform="translate(-542.568,-225.342)"
             id="path1997" />
          <path
             d="m 863.039,319.092 q -10.574,9.715 -18.541,14.343 -7.967,4.628 -15.2,4.622 a 16.25,16.25 0 0 1 -13.41,-6.451 q -5.094,-6.451 -5.092,-17.337 0,-16.32 7.078,-39.177 A 248.823,248.823 0 0 1 835.05,232.96 l 19.745,-7.307 a 4.984,4.984 0 0 1 1.4,-0.312 q 2.25,0 3.692,3.306 a 22.754,22.754 0 0 1 1.436,8.9 68.72,68.72 0 0 1 -7.307,30.7 q -7.305,14.847 -22.854,31.716 -0.618,8.083 -0.621,11.115 0,6.764 2.488,10.729 a 7.523,7.523 0 0 0 6.609,3.966 16.752,16.752 0 0 0 8.939,-3.032 q 4.741,-3.032 14.459,-12.592 z m -29.775,-30.4 a 94.926,94.926 0 0 0 16.017,-24.6 q 6.132,-13.621 6.138,-23.43 a 10.682,10.682 0 0 0 -0.853,-4.632 c -0.573,-1.169 -1.3,-1.751 -2.176,-1.751 q -2.882,0 -8.356,14.324 -5.474,14.324 -10.769,40.097 z"
             transform="translate(-507.095,-225.342)"
             id="path1999" />
          <path
             d="m 910.691,288.281 q -12.438,11.815 -17.8,15.389 a 18.584,18.584 0 0 1 -10.259,3.576 q -12.283,0 -11.582,-21.689 -7.774,11.12 -14.34,16.4 -6.566,5.28 -13.568,5.285 -6.842,0 -11.62,-6.415 -4.778,-6.415 -4.78,-15.737 a 42.218,42.218 0 0 1 6.412,-22.233 52.71,52.71 0 0 1 16.442,-17.1 q 10.028,-6.528 17.723,-6.531 9.714,0 13.606,8.942 l 15.885,-8.784 h 4.362 l -6.859,22.777 q -5.292,17.179 -5.3,23.556 0,6.678 4.741,6.682 3.032,0 6.679,-3.229 3.647,-3.229 10.256,-9.831 z m -56.9,4.275 q 7.773,0 14.652,-13.252 6.879,-13.252 6.882,-24.451 a 10.673,10.673 0 0 0 -1.944,-6.8 6.3,6.3 0 0 0 -5.208,-2.45 q -7.778,0 -14.73,13.214 -6.952,13.214 -6.959,24.332 a 10.669,10.669 0 0 0 2.057,6.8 6.413,6.413 0 0 0 5.25,2.606 z"
             transform="translate(-471.728,-194.531)"
             id="path2001" />
        </g>
      </g>
      <g
         transform="translate(773.408,519.224)"
         id="g2037">
        <g
           transform="translate(376.72,23.834)"
           id="g2017">
          <path
             d="m 837.949,293.314 c -10.841,0 -10.86,-16.854 0,-16.854 10.844,0 10.864,16.854 0,16.854 z"
             transform="translate(-829.811,-276.46)"
             id="path2007" />
          <g
             transform="translate(36.431,2.1)"
             id="g2011">
            <path
               d="m 851.871,287.907 c -0.106,0.084 -0.212,0.174 -0.315,0.261 a 6.086,6.086 0 0 1 -8.308,0 c -0.1,-0.087 -0.206,-0.177 -0.315,-0.261 -1.928,-1.606 -2.218,-4.741 -1.307,-6.9 a 6.281,6.281 0 0 1 5.778,-3.885 6.6,6.6 0 0 1 5.456,3.132 c 1.307,2.234 1.139,5.891 -0.988,7.658 z"
               transform="translate(-841.129,-277.112)"
               id="path2009" />
          </g>
          <g
             transform="translate(69.12,4.719)"
             id="g2015">
            <path
               d="m 855.977,287.647 c -6.251,0 -6.264,-9.721 0,-9.721 6.264,0 6.267,9.721 0,9.721 z"
               transform="translate(-851.284,-277.926)"
               id="path2013" />
          </g>
        </g>
        <g
           transform="translate(0,23.834)"
           id="g2031">
          <g
             transform="translate(62.232)"
             id="g2021">
            <path
               d="m 740.251,293.314 c 10.841,0 10.861,-16.854 0,-16.854 -10.861,0 -10.864,16.854 0,16.854 z"
               transform="translate(-732.109,-276.46)"
               id="path2019" />
          </g>
          <g
             transform="translate(29.518,2.1)"
             id="g2025">
            <path
               d="m 723.767,287.907 c 0.1,0.084 0.209,0.174 0.312,0.261 a 6.086,6.086 0 0 0 8.308,0 c 0.106,-0.087 0.209,-0.177 0.315,-0.261 1.931,-1.606 2.218,-4.741 1.307,-6.9 a 6.278,6.278 0 0 0 -5.778,-3.885 6.605,6.605 0 0 0 -5.456,3.132 c -1.3,2.234 -1.139,5.891 0.992,7.658 z"
               transform="translate(-721.946,-277.112)"
               id="path2023" />
          </g>
          <g
             transform="translate(0,4.719)"
             id="g2029">
            <path
               d="m 717.472,287.647 c 6.254,0 6.267,-9.721 0,-9.721 -6.267,0 -6.267,9.721 0,9.721 z"
               transform="translate(-712.776,-277.926)"
               id="path2027" />
          </g>
        </g>
        <text
           class="f"
           transform="translate(100.468,37)"
           id="text2035"><tspan
             x="0"
             y="0"
             id="tspan2033">Restaurant Marino</tspan></text>
      </g>
    </g>
  </g>
</svg>
